<?xml version="1.0" encoding="UTF-8"?>
<svg width="45px" height="45px" viewBox="0 0 45 45" version="1.1" xmlns="http://www.w3.org/2000/svg" xmlns:xlink="http://www.w3.org/1999/xlink">
    <!-- Generator: Sketch 48.2 (47327) - http://www.bohemiancoding.com/sketch -->
    <title>Slice</title>
    <desc>Created with Sketch.</desc>
    <defs></defs>
    <g id="Page-1" stroke="none" stroke-width="1" fill="none" fill-rule="evenodd">
        <g id="logo-big" transform="translate(6.000000, 1.000000)" fill="#FFFFFF" fill-rule="nonzero">
            <path d="M33.2,12.2 L27.8,4.1 L26,7.4 L26,3 L16.7,0 L7.4,3 L7.4,7.4 L5.4,4 L0,12.2 L1.1,16.9 L6.1,19.9 L1.6,21.7 L4.2,23.2 L5.2,22.7 L4.2,25.4 L7.2,31.5 L8,29.2 L7.8,34.5 L11.9,37.8 L12.4,36 L13.6,40.5 L16.6,43.5 L19.6,40.5 L20.8,36 L21.3,37.8 L25.4,34.5 L25.2,29.2 L26,31.4 L29,25.3 L28,22.6 L29,23.1 L31.6,21.6 L27.1,19.8 L32.1,16.8 L33.2,12.2 Z M6.4,18.5 L1.6,12.2 L4,8.7 L3.5,11.8 L7.3,14.4 L10.4,13.8 L16.6,22.1 L12.2,18 L6.4,18.5 Z M8.4,22.7 L7.8,20.6 L10.2,22.1 L10.7,24.4 L8.4,22.7 Z M18.1,36.4 L16.7,36.1 L15.3,36.4 L15.2,35.4 L16.7,35 L18.2,35.4 L18.1,36.4 Z M20.3,33.7 L20.3,32 L17.8,32.5 L16.6,34.3 L15.4,32.5 L13,32 L13,33.7 L11.6,31.3 L12.5,29.7 L16.6,30.6 L20.7,29.7 L21.6,31.3 L20.3,33.7 Z M20.4,27.6 L16.6,29 L12.8,27.6 L11.5,22 L15.4,24.2 L16.6,22.2 L16.7,22.2 L17.9,24.2 L21.8,22 L20.4,27.6 Z M24.8,22.7 L22.5,24.4 L23,22.2 L25.4,20.7 L24.8,22.7 Z M26.8,18.5 L21.1,18 L16.7,22.1 L22.9,13.8 L26,14.4 L29.8,11.8 L29.3,8.7 L31.7,12.2 L26.8,18.5 Z" id="Shape"></path>
        </g>
    </g>
</svg>