<?xml version="1.0" encoding="UTF-8"?>
<svg width="127px" height="45px" viewBox="0 0 127 45" version="1.1" xmlns="http://www.w3.org/2000/svg" xmlns:xlink="http://www.w3.org/1999/xlink">
    <!-- Generator: Sketch 48.2 (47327) - http://www.bohemiancoding.com/sketch -->
    <title>Untitled</title>
    <desc>Created with Sketch.</desc>
    <defs></defs>
    <g id="Page-1" stroke="none" stroke-width="1" fill="none" fill-rule="evenodd">
        <g id="logo-big" fill="#000000" fill-rule="nonzero">
            <path d="M33.2,13 L27.8,4.9 L26,8.2 L26,3.8 L16.7,0.8 L7.4,3.8 L7.4,8.2 L5.4,4.8 L0,13 L1.1,17.7 L6.1,20.7 L1.6,22.5 L4.2,24 L5.2,23.5 L4.2,26.2 L7.2,32.3 L8,30 L7.8,35.3 L11.9,38.6 L12.4,36.8 L13.6,41.3 L16.6,44.3 L19.6,41.3 L20.8,36.8 L21.3,38.6 L25.4,35.3 L25.2,30 L26,32.2 L29,26.1 L28,23.4 L29,23.9 L31.6,22.4 L27.1,20.6 L32.1,17.6 L33.2,13 Z M6.4,19.3 L1.6,13 L4,9.5 L3.5,12.6 L7.3,15.2 L10.4,14.6 L16.6,22.9 L12.2,18.8 L6.4,19.3 Z M8.4,23.5 L7.8,21.4 L10.2,22.9 L10.7,25.2 L8.4,23.5 Z M18.1,37.2 L16.7,36.9 L15.3,37.2 L15.2,36.2 L16.7,35.8 L18.2,36.2 L18.1,37.2 Z M20.3,34.5 L20.3,32.8 L17.8,33.3 L16.6,35.1 L15.4,33.3 L13,32.8 L13,34.5 L11.6,32.1 L12.5,30.5 L16.6,31.4 L20.7,30.5 L21.6,32.1 L20.3,34.5 Z M20.4,28.4 L16.6,29.8 L12.8,28.4 L11.5,22.8 L15.4,25 L16.6,23 L16.7,23 L17.9,25 L21.8,22.8 L20.4,28.4 Z M24.8,23.5 L22.5,25.2 L23,23 L25.4,21.5 L24.8,23.5 Z M26.8,19.3 L21.1,18.8 L16.7,22.9 L22.9,14.6 L26,15.2 L29.8,12.6 L29.3,9.5 L31.7,13 L26.8,19.3 Z M99.3,13.5 C98.1,12.3 96.5,11.7 94.4,11.7 C92.3,11.7 90.7,12.3 89.5,13.5 C88.3,14.7 87.7,16.2 87.7,17.9 C87.7,19.6 88.3,21 89.4,22.2 C90.6,23.4 92.2,24 94.4,24 C96.5,24 98.1,23.4 99.3,22.2 C100.5,21 101.1,19.5 101.1,17.8 C101.1,16.2 100.5,14.7 99.3,13.5 Z M96.8,20.9 C96.2,21.6 95.4,21.9 94.4,21.9 C93.5,21.9 92.7,21.5 92,20.8 C91.4,20.1 91,19.1 91,18 C91,16.7 91.3,15.6 92,15 C92.6,14.3 93.4,14 94.4,14 C95.4,14 96.2,14.4 96.8,15.1 C97.4,15.8 97.7,16.8 97.7,17.9 C97.8,19.2 97.4,20.2 96.8,20.9 Z M76.4,24 L76.4,21.9 L82.1,14 L78.8,14 L78.8,16.2 L76.7,16.2 L76.7,11.9 L86,11.9 L86,13.7 L80.2,21.9 L84.1,21.9 L84.1,19.6 L86.2,19.6 L86.2,24 L76.4,24 Z M102.2,24 L102.2,21.9 L103.8,21.9 L103.8,14 L102.2,14 L102.2,11.9 L107.2,11.9 L111.6,19.4 L111.6,14 L110.1,14 L110.1,11.9 L115.5,11.9 L115.5,14 L113.8,14 L113.8,24 L111.1,24 L105.9,15.1 L105.9,21.9 L107.4,21.9 L107.4,24 L102.2,24 Z M116.4,24 L116.4,21.9 L117.8,21.9 L117.8,14 L116.4,14 L116.4,11.9 L127,11.9 L127,15.8 L124.7,15.8 L124.7,14 L121,14 L121,16.7 L124,16.7 L124,18.8 L121,18.8 L121,21.9 L124.7,21.9 L124.7,20.1 L127,20.1 L127,24 L116.4,24 Z M48.2,11.7 C45,11.7 43.5,13.8 43.5,17 L43.5,28 C43.5,31.2 45,33.3 48.2,33.3 C51.5,33.3 53,31.2 53,28 L53,25.4 L50.8,25.4 L50.8,28.1 C50.8,30 50,31.1 48.3,31.1 C46.6,31.1 45.8,30 45.8,28.1 L45.8,16.9 C45.8,15 46.6,13.9 48.3,13.9 C50,13.9 50.8,15 50.8,16.9 L50.8,18.9 L53,18.9 L53,17 C53,13.8 51.5,11.7 48.2,11.7 Z M60.6,33.1 L60.6,14.1 L64.5,14.1 L64.5,11.9 L54.3,11.9 L54.3,14.1 L58.2,14.1 L58.2,33.1 L60.6,33.1 Z M68.5,21.8 L68.5,14.1 L74.5,14.1 L74.5,11.9 L66.1,11.9 L66.1,33.1 L68.5,33.1 L68.5,23.9 L73.3,23.9 L73.3,21.8 L68.5,21.8 Z" id="Shape"></path>
        </g>
    </g>
</svg>