<svg xmlns="http://www.w3.org/2000/svg" width="127" height="60" viewBox="0 0 127 60">
    <g fill="#FFF" fill-rule="nonzero">
        <path d="M33.2 21l-5.4-8.1-1.8 3.3v-4.4l-9.3-3-9.3 3v4.4l-2-3.4L0 21l1.1 4.7 5 3-4.5 1.8L4.2 32l1-.5-1 2.7 3 6.1L8 38l-.2 5.3 4.1 3.3.5-1.8 1.2 4.5 3 3 3-3 1.2-4.5.5 1.8 4.1-3.3-.2-5.3.8 2.2 3-6.1-1-2.7 1 .5 2.6-1.5-4.5-1.8 5-3 1.1-4.6zM6.4 27.3L1.6 21 4 17.5l-.5 3.1 3.8 2.6 3.1-.6 6.2 8.3-4.4-4.1-5.8.5zm2 4.2l-.6-2.1 2.4 1.5.5 2.3-2.3-1.7zm9.7 13.7l-1.4-.3-1.4.3-.1-1 1.5-.4 1.5.4-.1 1zm2.2-2.7v-1.7l-2.5.5-1.2 1.8-1.2-1.8-2.4-.5v1.7l-1.4-2.4.9-1.6 4.1.9 4.1-.9.9 1.6-1.3 2.4zm.1-6.1l-3.8 1.4-3.8-1.4-1.3-5.6 3.9 2.2 1.2-2h.1l1.2 2 3.9-2.2-1.4 5.6zm4.4-4.9l-2.3 1.7.5-2.2 2.4-1.5-.6 2zm2-4.2l-5.7-.5-4.4 4.1 6.2-8.3 3.1.6 3.8-2.6-.5-3.1 2.4 3.5-4.9 6.3zM99.3 21.5c-1.2-1.2-2.8-1.8-4.9-1.8-2.1 0-3.7.6-4.9 1.8-1.2 1.2-1.8 2.7-1.8 4.4 0 1.7.6 3.1 1.7 4.3 1.2 1.2 2.8 1.8 5 1.8 2.1 0 3.7-.6 4.9-1.8 1.2-1.2 1.8-2.7 1.8-4.4 0-1.6-.6-3.1-1.8-4.3zm-2.5 7.4c-.6.7-1.4 1-2.4 1-.9 0-1.7-.4-2.4-1.1-.6-.7-1-1.7-1-2.8 0-1.3.3-2.4 1-3 .6-.7 1.4-1 2.4-1s1.8.4 2.4 1.1c.6.7.9 1.7.9 2.8.1 1.3-.3 2.3-.9 3zM76.4 32v-2.1l5.7-7.9h-3.3v2.2h-2.1v-4.3H86v1.8l-5.8 8.2h3.9v-2.3h2.1V32zM102.2 32v-2.1h1.6V22h-1.6v-2.1h5l4.4 7.5V22h-1.5v-2.1h5.4V22h-1.7v10h-2.7l-5.2-8.9v6.8h1.5V32zM116.4 32v-2.1h1.4V22h-1.4v-2.1H127v3.9h-2.3V22H121v2.7h3v2.1h-3v3.1h3.7v-1.8h2.3V32zM48.2 19.7c-3.2 0-4.7 2.1-4.7 5.3v11c0 3.2 1.5 5.3 4.7 5.3 3.3 0 4.8-2.1 4.8-5.3v-2.6h-2.2v2.7c0 1.9-.8 3-2.5 3s-2.5-1.1-2.5-3V24.9c0-1.9.8-3 2.5-3s2.5 1.1 2.5 3v2H53V25c0-3.2-1.5-5.3-4.8-5.3zM60.6 41.1v-19h3.9v-2.2H54.3v2.2h3.9v19zM68.5 29.8v-7.7h6v-2.2h-8.4v21.2h2.4v-9.2h4.8v-2.1z"/>
    </g>
</svg>
