<?xml version="1.0" encoding="UTF-8"?>
<svg width="700px" height="700px" viewBox="0 0 700 700" version="1.1" xmlns="http://www.w3.org/2000/svg" xmlns:xlink="http://www.w3.org/1999/xlink">
    <!-- Generator: Sketch 52 (66869) - http://www.bohemiancoding.com/sketch -->
    <title>Slice 1</title>
    <desc>Created with Sketch.</desc>
    <defs>
        <rect id="path-1" x="6.8053596" y="21.4187653" width="166.7529" height="72.9437412"></rect>
    </defs>
    <g id="Page-1" stroke="none" stroke-width="1" fill="none" fill-rule="evenodd">
        <g id="mctf" transform="translate(4.000000, 4.000000)">
            <circle id="path3318" stroke="#14283C" stroke-width="7.99999952" fill="#AFC6E9" cx="345.60342" cy="345.56946" r="345.45114"></circle>
            <path d="M328.74064,60.20939 C325.91036,60.23699 328.14689,66.8249 328.14689,71.49064 C324.89995,76.69671 319.39256,80.25876 316.58439,84.89689 C311.31908,93.60521 317.19047,98.38286 320.11564,103.11564 C322.68979,102.38995 334.91449,94.33033 337.45939,104.55314 C335.11925,103.35417 332.30264,102.39025 328.17814,103.08439 C324.05365,103.81009 324.61474,104.49382 322.77189,107.42814 C326.69162,106.45004 326.85032,105.99064 332.11564,105.99064 C333.78298,109.33514 334.42287,109.72509 334.80314,114.61564 C329.68409,111.99683 328.944,114.45788 322.77189,114.61564 C323.97121,115.71995 321.31763,115.76314 325.64689,116.67814 C327.87001,117.11987 325.51639,116.42905 329.55314,116.33439 C336.04703,116.14508 331.11177,117.53577 337.45939,116.08439 L337.45939,118.92814 C332.4866,120.8528 337.36059,118.97004 334.08439,121.11564 C323.87554,127.80464 333.09592,118.21 324.11564,124.67814 L320.11564,120.39689 C320.58367,126.58106 319.93446,122.97812 322.77189,127.55314 C329.49978,123.73536 325.2104,125.95757 333.45939,126.14689 C336.47231,140.02972 345.45939,166.06493 345.45939,177.89689 C340.6036,174.39463 339.31934,171.51102 335.89689,166.11564 L328.14689,173.58439 L328.14689,133.33439 L322.77189,185.11564 C316.71678,180.72993 320.39205,178.47871 313.45939,176.45939 L322.77189,127.55314 C320.05148,131.81265 320.263,135.0231 318.30314,141.42814 L309.99064,169.86564 C309.28859,172.54755 309.02117,175.47675 308.55314,176.92814 C306.76878,182.70214 310.43401,180.0462 304.11564,180.77189 C304.11564,187.99728 305.45939,189.66034 305.45939,198.05314 L308.11564,198.05314 C309.19795,193.06794 312.66776,186.56325 314.80314,182.24064 C318.10858,184.63858 319.26551,187.33213 321.45939,190.83439 C315.14102,191.40232 313.14239,195.45713 308.95939,198.95939 C303.72333,203.3451 301.82339,202.36564 293.42814,202.36564 C295.2125,205.23686 295.87979,206.33485 297.45939,209.55314 C294.3002,211.3516 292.00612,212.88753 288.11564,213.86564 L288.11564,216.74064 C294.58027,218.6022 289.68226,219.22282 296.14689,221.08439 C295.12308,234.24153 293.42814,245.69824 293.42814,259.92814 L294.80314,259.92814 C294.80314,246.61324 297.88307,234.26191 299.05314,222.24064 L292.11564,213.86564 C296.24014,212.82443 295.99115,212.0631 300.11564,211.02189 C299.06258,206.76238 299.59476,208.6798 297.45939,205.24064 C316.20974,205.24064 312.9533,194.80602 322.92814,197.77189 C347.93836,205.21814 345.12448,195.84451 352.11564,198.05314 C356.00612,200.86126 353.91811,200.97736 358.80314,202.36564 C356.43376,207.19308 358.66237,205.0551 354.77189,208.11564 C353.10454,214.93085 337.24197,226.30949 331.77189,232.17814 C327.20863,237.13179 326.00302,240.7953 323.89689,248.14689 C321.64451,256.00332 323.73355,260.63392 325.45939,268.52189 C311.33081,268.52189 310.15025,270.65173 299.67814,276.67814 C295.99242,278.82368 295.85603,278.27264 293.42814,281.45939 C298.75196,280.13421 312.00642,273.05133 315.89689,273.24064 C341.43364,274.47117 327.89025,276.89418 338.77189,277.17814 C336.72427,273.86521 336.23265,274.26433 336.11564,268.52189 C337.66598,267.73309 336.06604,268.1475 338.08439,268.08439 C338.11359,268.08439 341.25662,268.49034 341.49064,268.52189 L341.49064,262.77189 C344.2988,264.22328 342.66666,263.83107 346.61564,264.17814 L348.11564,258.45939 C353.14693,259.72147 353.57074,259.04877 356.11564,262.77189 C350.79182,264.28639 345.75757,268.13286 342.80314,272.86564 C347.04464,271.63512 344.85343,271.85009 348.33439,270.20939 C350.23575,269.32594 351.31002,268.90292 353.24064,268.27189 C362.57193,265.27446 379.05144,264.13996 386.80314,271.39689 C371.73851,271.39689 362.59524,267.47435 348.11564,275.70939 L350.80314,311.67814 L352.11564,275.70939 C356.03537,274.73129 356.19408,274.27189 361.45939,274.27189 C362.77572,280.36141 363.82512,278.04168 364.14689,285.77189 C364.23469,288.61158 363.79659,289.71407 364.61564,292.49064 C365.7857,296.46617 366.10109,295.01374 366.80314,295.86564 L366.80314,274.27189 C373.47253,274.27189 374.99293,275.70939 382.80314,275.70939 C386.34259,282.96633 387.03898,303.60083 385.45939,311.67814 C372.14986,311.67814 368.88567,312.11701 364.14689,321.77189 C359.40811,318.33275 357.1517,311.20018 347.61564,315.42814 C342.49659,317.69988 338.9474,323.07717 338.77189,330.36564 C345.44128,322.1306 340.84624,317.42814 356.11564,317.42814 L360.30314,324.42814 C360.44939,324.68056 360.71938,325.05104 360.86564,325.27189 L362.80314,328.95939 C357.09906,328.95939 340.94034,329.56673 337.45939,334.67814 C344.33354,332.94278 351.60539,331.83439 360.14689,331.83439 C362.13601,335.74683 361.49064,340.60703 361.49064,344.77189 L362.86564,374.92814 C363.04116,379.94491 362.80314,385.69173 362.80314,390.80314 L365.39689,349.02189 C365.51389,341.95427 366.65688,342.52038 366.80314,336.14689 C372.36096,337.53516 376.87831,338.91093 382.55314,340.70939 C395.02921,344.66578 393.20373,358.55998 392.39689,381.24064 C378.62728,386.29407 373.31157,388.79727 362.33439,392.52189 C361.00446,392.97314 359.61473,393.46323 358.08439,393.95939 C359.59786,393.46354 360.99497,392.97636 362.33439,392.52189 C355.0236,393.18692 346.19592,394.48885 339.14689,396.92814 C335.84145,398.09556 337.41781,398.32685 334.52189,399.11564 C327.20896,401.10342 305.64987,399.42814 297.45939,399.42814 C298.4247,395.01088 299.51351,393.89764 301.67814,390.55314 L308.11564,396.52189 C305.92176,386.42529 304.32044,389.21722 299.08439,388.39689 C293.73132,387.54498 298.75379,386.68086 292.08439,386.39689 C288.10616,386.23905 287.30225,387.27159 285.45939,387.30314 C282.06619,387.30314 274.77377,385.76223 268.39689,386.77189 C267.95812,386.83509 262.17197,388.07985 260.70939,388.55314 C257.22843,389.65745 258.48686,389.88814 254.77189,390.80314 C254.77189,380.42257 255.05693,383.82896 258.77189,377.86564 C252.33652,379.31703 256.90727,379.00152 254.77189,377.86564 C257.69706,371.33442 254.20319,367.572 257.77189,362.33439 C260.90183,357.75937 262.21811,356.71997 262.80314,349.08439 C257.27457,347.69612 254.34625,343.87078 248.11564,343.33439 L248.11564,334.67814 C257.50544,331.96467 250.02648,330.39751 244.14689,330.33439 C237.00947,330.27119 236.71199,329.14932 230.80314,328.89689 C229.37346,328.83379 227.99344,328.79749 226.64689,328.80319 C217.22102,328.84279 209.64986,330.36569 201.45939,330.36569 C203.79952,334.15192 202.12086,333.35301 206.77189,334.67819 L206.77189,344.77194 C203.52495,344.86664 195.0775,346.5144 193.14689,347.30319 C188.64212,349.16476 188.73176,352.26484 186.77189,356.27194 C196.57122,355.10452 185.69693,351.95112 197.86564,349.55319 C214.01259,346.39799 229.46053,349.08444 244.11564,349.08444 C244.70068,356.78311 245.71682,351.27224 246.74064,357.77194 C247.53043,362.91489 248.38821,370.63305 242.77189,372.08444 C242.77189,375.71291 242.41686,381.89649 242.70939,385.20944 C243.55769,394.26484 242.15194,383.3254 245.42814,390.80319 C249.60775,400.30175 247.83346,417.59712 251.86564,430.99069 L236.30314,436.45944 L236.27194,436.45944 L230.77194,436.80319 C225.12545,437.11771 218.43681,438.41492 215.55319,443.67819 C204.71937,447.27771 194.10604,451.1028 183.58444,455.02194 C183.91009,451.36512 184.11569,448.0792 184.11569,445.42819 C190.84358,441.95747 200.25263,442.39134 205.45944,439.70944 C202.88528,435.57612 198.66242,432.45506 194.77194,429.64694 C196.41003,426.27089 197.04792,425.88123 197.42819,420.99069 L209.42819,420.99069 C225.95542,420.99069 222.00956,415.62942 224.11569,410.92819 C214.28711,410.92819 191.83815,412.70236 184.11569,416.70944 C184.11569,425.44932 186.10515,417.30696 186.86569,426.70944 C187.07045,429.35979 186.77199,433.93166 186.77199,436.83444 C181.36042,438.19116 181.34797,438.30725 177.42824,441.14694 L177.77199,457.17819 C159.17084,464.172 140.75409,471.36172 121.77199,477.89694 C115.4987,480.04931 117.71409,480.12345 112.30324,482.17819 C108.73318,483.54593 104.10695,484.49053 100.52199,485.83444 C95.67603,487.68483 96.50061,488.41211 90.92824,490.14694 L91.58449,491.20944 L242.74074,444.17819 C242.74674,444.16759 242.73474,444.15759 242.74074,444.14699 L363.27199,406.64699 C453.46033,378.56873 541.49119,352.47342 632.67814,324.08439 L490.89689,355.67814 C491.33636,355.98378 491.3777,356.31266 491.11564,356.64689 C489.86842,352.0887 487.29061,349.21636 481.45939,349.08439 C481.45939,344.00455 480.23339,328.03516 480.58439,326.64689 C481.3157,323.71257 483.07585,321.9289 483.86564,318.58439 C484.45068,316.06023 484.88835,311.00937 485.67814,309.05314 C487.31624,304.98297 492.63866,304.13163 496.17814,295.92814 C498.86931,289.68086 499.24628,285.49877 496.58439,278.11564 C493.89322,270.57473 487.16346,262.97131 481.45939,258.45939 C478.94374,256.44007 478.27556,255.48022 475.58439,253.30314 C466.37009,245.82534 460.68476,230.48053 454.83439,228.27189 C458.60787,234.39296 457.82129,229.64977 459.45939,239.14689 C460.80498,246.84555 458.41019,255.3116 453.11564,260.95939 C450.71699,263.48354 448.72633,264.08394 445.77189,267.39689 C427.66508,287.81096 440.22323,297.47223 445.45939,305.92814 C460.55327,305.92814 469.86029,304.37137 480.30314,310.30314 L478.80314,316.02189 C473.45007,312.14102 464.68657,313.11564 457.49064,313.11564 L457.49064,314.55314 C462.81446,314.55314 464.45334,315.32683 469.39689,316.11564 C476.53433,317.21995 476.00062,316.29985 476.14689,323.17814 C468.27818,321.22193 471.40881,318.89689 460.14689,318.89689 C462.54554,323.78742 464.33261,327.90295 460.64689,333.80314 C458.57003,337.1161 453.87458,339.68826 450.80314,341.89689 L450.80314,350.52189 C455.60044,352.38346 454.50879,352.91728 456.14689,360.58439 C464.89316,359.7956 461.99653,353.04606 472.14689,350.52189 C476.01672,353.28506 477.96859,354.96914 478.64689,360.74064 L469.49064,361.55314 C467.20371,361.43811 464.81271,361.35757 462.49064,361.39689 C457.70524,361.47789 453.31386,362.06096 451.24064,363.89689 L450.20939,365.30314 C450.03041,365.35824 449.93675,365.39834 449.74064,365.45939 L449.45939,365.55309 C449.50739,353.76695 450.55018,345.97586 446.80314,337.55309 C458.24057,336.54343 462.99539,323.4317 447.05314,309.99059 C438.54091,302.79676 436.91108,297.14157 433.45939,294.42809 C435.56549,304.14609 441.61086,307.825 446.11564,315.33434 C449.68433,321.29765 448.53465,323.18533 444.14689,328.95934 C435.98566,328.95934 428.80574,329.04304 422.89689,333.36559 L421.49064,334.67809 C427.86752,334.11016 431.72241,333.27184 440.14689,333.27184 L440.14689,334.67809 C433.536,334.67809 427.60425,337.55309 421.49064,337.55309 L421.49064,339.02184 C436.6723,339.02184 427.46958,335.91617 445.45939,340.42809 C447.21449,348.53694 446.80314,354.98954 446.80314,364.89684 C439.51946,361.14215 428.65732,364.73899 421.49064,364.89684 L421.20939,365.14684 C421.20439,365.14705 421.18169,365.14584 421.17819,365.14684 C416.42369,367.56111 412.56574,369.654 409.36569,371.45934 C409.43409,370.45316 409.49069,369.30674 409.49069,367.80309 C415.66282,366.00462 417.34061,361.58645 418.80319,354.83434 L417.89694,352.92809 C416.22959,348.73168 416.10158,345.22746 409.49069,343.33434 C411.86007,338.47536 409.56889,340.64517 413.45944,337.55309 C417.99347,341.11844 418.80319,346.7255 418.80319,354.83434 C420.55829,357.86333 419.73813,358.73138 420.61569,362.95934 C420.67419,363.21174 420.96145,364.14867 420.99069,363.95934 C421.04919,363.8015 421.3152,364.61287 421.49069,364.89684 C421.49069,352.11831 422.75344,350.20434 418.36569,340.92809 L413.39689,331.83439 C407.42955,319.18209 426.81748,310.06534 429.77189,298.99064 C430.9712,294.44715 429.6057,294.95727 429.45939,288.64689 L433.45939,287.24064 C432.75736,280.42545 432.67527,285.63782 430.80314,280.05314 C431.00783,279.80072 431.30916,279.3984 431.39689,279.24064 C443.47787,261.2245 439.80234,270.81445 449.39689,259.83439 C456.41732,251.78865 457.49064,249.31067 457.49064,235.45939 L456.14689,235.45939 C456.14689,248.93205 444.48363,260.37395 436.14689,262.77189 C439.92036,256.71393 452.14689,252.32199 452.14689,234.02189 L450.80314,234.02189 C450.80314,241.43659 449.48194,244.61746 443.86564,250.95939 C440.0044,255.31355 436.56392,259.5536 432.14689,262.77189 C434.10675,254.78927 437.82357,259.59148 430.80314,255.58439 C430.2181,263.1884 429.16506,258.13753 430.80314,265.64689 C425.42083,269.52777 420.2245,275.87937 418.61564,284.24064 C417.65033,289.22584 417.60125,291.31733 419.67814,296.36564 C421.60876,301.00376 423.06458,301.51088 424.14689,305.92814 C419.52511,307.09556 417.93106,309.15429 414.77189,311.64689 C410.12086,315.33847 410.8673,314.78156 408.14689,320.30314 C402.00403,315.88586 405.97547,314.55314 396.14689,314.55314 C396.14689,311.52416 396.58837,307.69746 396.64689,305.67814 C396.73459,301.19778 394.40394,289.68237 397.70939,282.70939 L393.45939,277.17814 C397.96417,278.28247 396.84816,279.14131 400.70939,276.45939 C434.61215,253.01634 393.50182,223.2364 381.77189,210.61564 C363.66507,191.14812 376.31178,194.17481 365.45939,187.99064 C360.80837,191.36669 360.14689,192.6931 360.14689,200.92814 C354.91083,196.85795 360.18779,203.15442 357.58439,189.30314 C356.53133,183.59224 355.59748,181.29196 353.95939,175.92814 C350.24442,163.90687 337.56074,133.60945 339.95939,124.45939 C342.007,116.66608 339.18796,118.67391 337.95939,112.58439 C337.16959,108.6404 339.67686,105.79377 340.11564,100.24064 C332.6857,96.01268 328.88933,96.01268 321.45939,100.24064 C322.83422,94.6244 326.81525,93.48067 333.39689,94.52189 C341.38261,95.78396 336.16117,99.03401 344.14689,94.49069 C344.14689,76.06438 338.90077,83.06148 332.55314,72.39694 C327.87286,64.54052 335.12767,62.88713 330.27189,60.64694 C329.63932,60.35903 329.14497,60.2055 328.74064,60.20944 L328.74064,60.20939 Z M354.77189,208.11564 C352.60726,199.2811 347.60408,202.41485 340.11564,203.80314 C326.63059,206.29574 333.09774,203.54695 322.77189,200.92814 C325.11203,204.68282 328.57618,206.96589 332.11564,209.55314 C338.46326,207.944 348.1025,204.67648 354.77189,208.11564 Z M364.14689,144.83439 C364.14689,159.31671 365.9349,167.8593 361.45939,175.05314 C363.50701,178.23988 361.6859,176.82413 365.45939,177.89689 C364.72809,181.27294 364.23464,182.16743 364.14689,186.55314 L366.80314,186.55314 C367.30042,179.80103 376.63354,175.39644 365.45939,172.17814 C365.45939,162.42861 366.80314,156.06687 366.80314,144.83439 L364.14689,144.83439 Z M333.45939,179.36564 C338.57843,180.81703 336.39595,180.53488 339.58439,185.70939 C342.4218,190.28441 342.91832,188.75544 344.14689,193.74064 C338.64757,194.21392 341.14694,195.17814 336.11564,195.17814 C331.25985,195.17814 332.97526,193.86685 326.80314,193.74064 C327.38818,186.19974 331.55802,187.0643 333.45939,179.36564 Z M453.55314,183.49064 C453.37768,204.88282 454.83439,194.13437 454.83439,205.24064 L456.14689,205.24064 C456.14689,201.54907 455.93609,197.2438 456.05319,193.64689 C456.25789,188.03065 456.81409,188.33394 458.80319,185.11564 L453.55319,183.49064 L453.55314,183.49064 Z M353.45939,186.55314 C354.4247,191.00196 355.15033,190.72932 356.11564,195.17814 C352.42992,192.52778 347.72605,191.06506 353.45939,186.55314 Z M230.77189,189.42814 C230.77189,203.35749 227.1465,205.80394 229.42814,221.61564 C236.21454,214.32156 232.11564,217.99272 232.11564,189.42814 L230.77189,189.42814 Z M457.24064,210.95939 C455.188,210.96639 452.14689,211.5819 452.14689,216.74064 C452.14689,219.80117 455.58927,219.61564 457.49064,219.61564 C459.30423,216.11338 458.80314,216.9852 458.80314,211.02189 C458.48868,211.02989 457.92485,210.95689 457.24064,210.95939 Z M365.55314,218.86564 L372.11564,222.49064 C363.42788,224.69927 368.45055,222.49064 361.45939,222.49064 C357.74442,222.49064 362.98286,222.72675 359.20939,224.17814 C359.06314,224.24124 358.66416,224.36503 358.45939,224.42814 L353.80314,224.36564 C347.60178,225.69082 353.9113,228.93102 346.80314,225.36564 C349.05552,222.0527 350.28983,221.28004 355.58439,220.42814 L360.99064,221.36564 L365.55314,218.86564 Z M376.20939,219.92814 C377.04203,219.87244 377.99242,219.96694 378.99064,219.99064 C380.07987,223.76487 380.28697,221.05777 380.70939,220.05314 C385.44818,220.58952 385.60383,220.6013 386.80314,225.36564 C377.15008,218.42423 379.86751,228.26464 373.49064,222.49064 C373.80144,220.53837 374.82165,220.02088 376.20939,219.92814 Z M230.77189,225.36564 C232.38073,227.98445 232.21083,227.18252 233.14689,229.99064 C237.6224,243.4633 234.3823,232.41019 240.11564,244.08439 C234.20679,242.38059 232.11564,236.55646 232.11564,229.67814 L230.77189,229.67814 C230.77189,238.1656 232.6948,242.71363 238.42814,248.80314 L243.36564,253.52189 C251.08809,261.69383 250.10475,265.05874 248.11564,274.27189 C247.94012,273.98792 247.70539,273.17633 247.64689,273.36564 C247.58839,273.58651 247.2679,272.61776 247.20939,272.39689 C246.85837,271.45034 246.47265,270.09344 246.20939,269.14689 C245.30258,265.96015 245.14145,265.07578 244.14689,262.70939 C241.92376,257.47178 241.25084,257.71527 237.74064,253.83439 C231.39301,246.76676 229.42814,240.89643 229.42814,231.14689 L228.11564,231.14689 C228.11564,252.9808 227.63647,244.52733 234.80314,257.02189 C238.45961,263.39537 242.96054,275.09949 236.11564,280.05314 L227.24064,256.52189 C222.12159,240.27266 226.77189,236.09676 226.77189,228.27189 L225.42814,228.27189 C225.42814,232.24743 225.25845,233.0927 224.14689,235.49064 C224.05909,235.71151 221.42742,240.07866 220.95939,240.67814 C218.67776,243.83333 219.22104,242.59572 216.64689,244.67814 C203.62987,255.18493 191.94598,268.31115 207.30314,283.80314 L209.42814,287.24064 C220.39754,281.5613 232.33651,285.77189 238.77189,285.77189 L238.77189,287.24064 C229.85011,287.24064 229.75809,283.53549 209.42814,288.64689 L207.80314,304.45939 C211.72287,301.61973 210.88707,300.07594 212.11564,294.42814 C242.74219,286.72949 234.92677,310.59874 245.42814,318.89689 C245.42814,311.82925 246.30386,307.87679 246.77189,300.17814 C247.21066,293.04741 251.07006,290.95999 248.11564,284.36564 C251.18707,284.08167 250.76168,285.31385 254.27189,280.92814 C254.53516,280.61262 255.22538,279.68145 255.45939,279.33439 C266.19477,263.02206 245.64766,245.57352 241.08439,240.17814 C238.51024,237.11761 238.33949,236.09178 236.58439,232.05314 C234.215,226.59466 235.65692,226.78548 230.77189,225.36564 Z M373.52189,226.08439 C373.73442,226.03259 372.21181,226.43606 375.67814,227.24064 C382.08426,228.75513 377.02274,225.31839 383.89689,226.99064 L385.49064,227.45939 C387.2165,227.74336 388.74987,224.98068 393.45939,232.55314 C391.55804,233.59435 392.28069,236.57382 382.80314,231.14689 C378.26912,234.39674 379.89659,235.56416 372.11564,231.14689 C366.93809,234.08122 366.24651,235.59812 359.92814,230.89689 L354.74064,235.52189 L349.70939,232.77189 L345.45939,238.33439 C337.67843,232.6866 346.09048,237.41939 336.11564,238.33439 C340.12313,230.194 339.69008,232.30948 344.89689,231.64689 C348.64111,231.17361 346.87724,230.02853 349.33439,229.33439 L360.14689,228.27189 C363.94962,228.27189 358.67754,225.19822 364.61564,226.36564 C369.8517,227.3753 363.6383,228.27189 369.45939,228.27189 C372.1213,228.27189 369.65323,226.74517 372.49064,226.27189 C373.2,226.15357 373.45105,226.10165 373.52189,226.08439 Z M384.11564,235.45939 C390.96056,245.52445 390.60521,233.5844 397.77189,240.11564 L390.80314,246.95939 C388.87252,243.83575 388.28281,241.98324 385.24064,239.49064 L379.02189,245.27189 L373.49064,238.33439 C369.98043,240.85855 369.73014,241.65489 365.45939,244.08439 C362.3002,242.28593 360.94234,240.7503 357.49064,239.74064 L353.45939,245.52189 C348.51585,244.10205 351.74668,244.06673 346.80314,242.64689 C342.47389,245.77053 343.83077,245.00726 341.49064,249.80314 C338.3022,247.53141 340.06462,248.09526 336.11564,246.95939 C334.82856,252.16545 336.00995,250.79861 330.80314,251.27189 C331.70994,247.07549 333.10654,244.61699 334.80314,241.20939 C338.2841,242.09284 338.74097,242.50679 341.49064,244.08439 C342.07567,241.37093 341.80858,241.69686 342.80314,239.74064 C344.85076,240.27702 346.25935,240.89719 346.99064,240.86564 C352.92874,240.73943 350.8505,235.73355 357.49064,239.74064 C360.56207,234.9763 358.85705,236.88874 364.67814,237.74064 C373.07338,238.93961 366.32308,237.72114 371.64689,236.49064 C378.08227,234.97615 374.34557,242.49546 384.11564,235.45939 Z M222.77189,242.64689 C220.81202,250.56642 211.43833,251.0254 229.42814,280.05314 C225.21589,281.09435 220.32788,281.85537 216.11564,282.92814 C202.12732,284.27974 206.7289,268.52725 206.77189,262.77189 L208.11564,262.77189 C208.11564,271.1016 219.05509,286.89614 224.11564,277.17814 C214.25781,274.33848 210.99603,258.51569 217.02189,249.36564 C219.04026,246.27355 220.13923,244.54001 222.77189,242.64689 Z M373.30314,245.42814 C374.32329,245.50304 374.95654,247.02657 378.80314,249.80314 C381.78682,248.13089 382.79749,247.415 385.45939,245.52189 C397.68662,265.17872 389.59452,244.36581 396.14689,254.14689 C392.63669,255.03035 392.22633,255.47343 389.27189,257.27189 L384.11564,252.70939 C375.39863,257.66304 378.08299,255.5945 372.11564,251.27189 C369.45373,253.19656 368.44306,253.88059 365.45939,255.58439 L359.92814,251.02189 L354.77189,255.58439 C350.85216,254.60628 350.7247,254.14689 345.45939,254.14689 C343.55803,261.90866 345.52429,254.53911 338.24064,259.27189 C333.64813,262.26932 332.11564,258.07443 332.11564,265.64689 L330.80314,265.64689 C330.80314,262.39704 330.1338,258.5388 331.77189,256.77189 C333.90727,254.4686 332.19408,256.9449 337.45939,258.45939 C337.75191,254.51541 337.57256,255.3282 338.77189,252.70939 C343.53992,253.78215 345.19429,253.49064 346.80314,246.95939 C348.47049,247.9375 351.20701,249.80314 353.45939,249.80314 C354.30769,249.80314 357.31131,246.59465 358.80314,245.52189 C361.78682,247.19414 362.79748,247.91003 365.45939,249.80314 C370.87095,246.72683 372.28299,245.3532 373.30314,245.42814 Z M281.45939,246.95939 C281.45939,257.43462 279.85054,262.51284 281.45939,269.99064 C281.66415,269.73822 281.96739,268.95698 282.08439,269.20939 L285.45939,267.11564 C285.34239,262.03579 284.64783,250.93493 281.45939,246.95939 Z M462.80314,246.95939 C466.48883,249.89372 467.57822,253.20215 466.11564,260.49064 C464.97481,266.32774 463.48176,270.16954 461.52189,274.33439 C457.77769,282.15925 452.14689,289.00876 452.14689,300.17814 C448.49041,300.49365 449.23103,300.2904 446.80314,301.61564 C440.60177,272.87185 462.80314,269.55055 462.80314,246.95939 Z M474.80314,261.33439 C476.32424,262.40715 479.9296,264.56748 480.86564,266.33439 C483.58605,271.31959 482.8972,280.68689 480.61564,286.30314 C476.84217,295.57939 468.8054,298.70939 460.14689,298.70939 C463.80337,292.84074 467.5602,290.68961 470.86564,282.95939 C473.73233,276.20729 474.80314,271.46255 474.80314,261.33439 Z M326.11564,278.55314 C316.40636,278.55414 304.50047,278.92282 297.89689,281.92814 C293.80165,283.75814 294.53971,282.72872 293.42814,287.24064 C298.69345,287.71391 298.0869,288.70802 302.24064,292.11564 C310.22636,298.70998 320.11564,303.67152 320.11564,317.42814 C320.11564,327.36699 315.25489,333.9209 306.77189,334.67814 C303.90522,380.64926 306.66989,352.59362 315.24064,374.49064 C317.81479,381.05344 318.80314,386.34421 318.80314,395.11564 C324.0392,395.24179 324.6528,396.52189 334.80314,396.52189 L334.80314,341.89689 L329.45939,341.89689 C332.67708,327.06751 340.15633,319.92345 341.20939,317.14689 C342.78898,312.95048 340.36959,311.04303 345.45939,308.83439 L345.45939,305.92814 C343.35327,305.01314 341.2755,308.87754 343.61564,297.83439 C343.64484,297.67654 343.71334,297.2734 343.77189,297.11564 C343.80109,296.9895 343.93015,296.61685 343.95939,296.49064 L344.14689,281.45939 L340.42814,280.95939 C334.92882,279.57112 340.0392,278.58439 334.80314,278.58439 C332.33137,278.58439 329.35207,278.55269 326.11564,278.55319 L326.11564,278.55314 Z M278.80314,280.05314 C277.48681,286.07955 277.40565,287.58275 272.95939,291.02189 C269.24442,293.89312 267.2681,295.18131 263.55314,298.11564 C254.66061,305.18325 253.55281,307.55616 250.80314,320.30314 C261.9188,334.12286 254.58204,331.51691 273.30314,328.77189 C287.63648,326.68947 286.43804,328.27356 296.64689,331.36564 C299.3673,332.186 302.56347,331.83439 305.45939,331.83439 C312.15803,321.01209 320.83546,314.41921 302.55314,299.02189 C300.44701,297.25498 299.0755,295.47993 297.11564,293.33439 C292.72788,288.57005 289.60565,288.03578 289.45939,280.05314 C281.38591,280.24247 282.57095,281.02114 281.45939,284.36564 C281.31314,284.05011 281.04914,283.30133 280.99064,283.49064 L278.80314,280.05314 Z M250.80314,320.30314 L242.77189,320.30314 L246.49064,324.92814 L250.80314,320.30314 Z M489.49064,282.92814 L492.14689,292.99064 C483.25438,299.42725 479.6571,305.46149 476.14689,298.70939 C483.86933,298.01524 488.84709,291.19473 489.49064,282.92814 Z M284.11564,284.36564 C284.11564,295.25104 281.11258,295.91821 277.86564,303.49064 C273.71189,313.11398 276.11564,314.77146 276.11564,324.61564 C272.42993,324.93116 273.22903,324.75915 270.77189,326.08439 C269.13379,322.36128 268.11564,317.29436 268.11564,311.67814 C268.11564,305.11534 272.90594,301.24592 276.24064,297.42814 C284.0216,288.49895 278.65267,294.78577 282.39689,286.80314 C283.30369,284.84693 283.23809,285.4384 284.11564,284.36564 Z M288.11564,290.11564 L289.45939,290.11564 C289.45939,298.95016 297.55756,305.93419 290.30314,318.36564 C288.28477,321.8679 287.27865,322.79953 282.80314,323.17814 C289.8528,311.81945 288.11564,307.97401 288.11564,290.11564 Z M373.49064,292.99064 L373.49064,310.24064 L376.14689,310.24064 L376.14689,292.99064 L373.49064,292.99064 Z M293.42814,294.42814 C300.91658,299.82351 302.80314,305.16805 302.80314,316.02189 C298.44464,319.14554 299.68801,320.19431 293.42814,321.77189 C297.08461,315.87169 300.11564,316.79966 300.11564,307.36564 C300.11564,303.6425 294.97848,300.61232 293.42814,294.42814 Z M217.45939,300.17814 L217.45939,314.55314 C221.70089,311.17709 220.11564,307.97145 220.11564,300.17814 L217.45939,300.17814 Z M232.11564,300.17814 C227.87415,303.55419 229.42814,306.75983 229.42814,314.55314 L232.11564,314.55314 L232.11564,300.17814 Z M265.45939,301.61564 C257.94169,313.7 261.59251,316.98386 268.11564,327.49064 C263.28911,328.59495 261.49795,328.4082 256.11564,317.42814 C256.96394,313.48416 257.18503,310.92798 259.11564,307.67814 L261.92814,303.58439 C263.771,301.62818 262.68047,302.40443 265.45939,301.61564 Z M378.92814,315.89689 C384.15607,315.95879 389.27896,319.00112 389.49064,328.95939 C385.98044,327.06628 390.54918,327.49064 385.45939,327.49064 C378.96551,327.49064 367.42308,328.97358 364.14689,327.49064 C365.49247,324.74562 366.1585,321.60552 368.61564,319.39689 C370.36251,317.84592 374.08528,316.15971 377.89689,315.92814 C378.24507,315.90704 378.57961,315.89264 378.92814,315.89694 L378.92814,315.89689 Z M221.45939,317.42814 C216.74986,320.83574 218.55285,320.30314 210.77189,320.30314 C213.14128,325.13058 210.8814,322.99231 214.77189,326.08439 C218.07733,323.68645 220.28932,322.12937 221.45939,317.42814 Z M400.49064,318.86564 C401.22422,318.86264 402.00603,318.89684 402.80314,318.89684 C404.90924,323.18789 406.68614,326.70904 406.80314,333.27184 C405.75011,331.91511 406.3435,333.90454 404.64689,329.83434 C402.01423,323.58706 404.62899,321.96117 396.14689,321.77184 C396.54178,319.21614 398.2899,318.87446 400.49064,318.86559 L400.49064,318.86564 Z M225.42814,318.89684 C226.77372,322.84083 228.02223,323.90726 230.77189,326.08434 C233.66781,323.97037 235.38252,323.33206 237.45939,320.30309 C231.52129,321.81758 230.83971,321.67341 225.42814,318.89684 Z M201.45939,320.30314 C202.4832,332.86078 202.38796,315.09074 205.45939,327.49064 C209.84715,324.01993 206.94175,325.95092 209.42814,320.30314 L201.45939,320.30314 Z M393.45939,323.17814 C396.99886,325.00816 394.87958,324.48943 400.11564,324.61564 L400.11564,330.36564 C396.89795,329.57685 394.77955,328.87891 392.14689,327.49064 C393.28769,325.75528 392.84511,325.7654 393.45939,323.17814 Z M279.83439,331.61564 C274.19814,331.60564 268.6076,332.92881 265.45939,337.55314 C269.55463,336.54348 280.27712,334.2316 284.92814,335.17814 C286.06896,335.43056 292.81185,337.39358 293.39689,337.74064 C295.2105,338.8134 295.13906,337.93255 296.39689,340.74064 C298.386,345.22102 297.75757,342.38785 294.80314,343.33439 L294.80314,354.83439 C298.3426,356.38042 297.28388,351.87608 297.45939,360.58439 C284.38387,357.303 260.35149,353.07626 258.77189,373.52189 C263.36442,369.89342 261.68026,364.89689 268.11564,364.89689 C272.82517,364.89689 272.25442,369.0554 276.11564,372.08439 C278.66054,361.79848 290.94175,361.97389 293.42814,373.52189 L296.30314,366.39689 C301.36369,366.46009 299.23443,365.97312 302.80314,367.80314 C301.77933,363.76449 297.24658,358.46618 302.36564,341.42814 C304.14999,335.49638 304.11564,342.33105 304.11564,336.14689 C304.11564,332.0136 299.83533,334.46271 296.64689,334.11564 C294.37622,333.84943 287.081,331.62853 279.83439,331.61564 Z M337.45939,336.14689 L339.11564,393.67814 L340.11564,393.67814 C340.11564,383.64463 341.49064,379.62153 341.49064,369.20939 L341.49064,336.14689 L337.45939,336.14689 Z M284.77189,340.17814 C284.34043,340.12684 284.0684,341.25545 283.83439,346.24064 C283.48337,354.09707 283.81749,352.10326 286.77189,353.39689 L286.77189,341.14689 C285.80658,341.44664 285.20335,340.22941 284.77189,340.17814 Z M409.49064,344.77189 C413.81991,347.92708 412.43373,347.13195 414.80314,351.95939 C412.11197,358.04892 415.0484,356.54576 409.49064,360.58439 L409.49064,344.77189 Z M429.45939,347.61564 C429.45939,354.62016 428.84145,355.07671 432.14689,359.14689 L429.45939,347.61564 Z M485.49064,353.39689 C487.57919,355.03529 488.51992,356.02793 488.99064,357.86564 C489.49586,357.65811 489.93796,357.44273 490.30314,357.24064 C489.95193,357.44331 489.4841,357.66295 488.99064,357.86564 C487.04665,358.66414 484.31368,359.4151 481.83439,360.05314 C482.48781,356.59062 482.56148,355.69957 485.49064,353.39689 Z M200.05314,354.64689 L190.77189,357.74064 C191.32768,364.80826 193.42814,362.99368 193.42814,369.20939 L192.11564,408.05314 C195.04082,404.42467 194.36437,405.95939 194.80314,399.42814 C197.58205,357.84275 203.32898,369.0652 218.80314,367.80314 C227.31539,367.10899 222.21925,366.33439 237.45939,366.33439 L237.45939,364.89689 C232.01857,364.89689 232.5034,364.71762 228.11564,360.58439 C220.83196,365.82201 222.69727,363.87969 216.11564,359.14689 C215.88163,359.36776 215.54315,359.67663 215.39689,359.83439 C215.25062,359.96053 214.8849,360.33288 214.70939,360.49064 C214.44612,360.71149 213.44141,361.55134 213.17814,361.74064 C211.94957,362.71876 211.53243,362.923 210.77189,363.45939 C207.29094,357.84316 206.26033,357.76239 198.77189,362.02189 C199.35692,360.5705 199.96538,357.01328 200.05314,354.64689 Z M400.11564,354.83439 L402.80314,354.83439 C403.98115,360.32863 403.8171,367.25128 403.45939,374.92814 C400.45295,376.76227 398.37733,378.11203 396.99064,379.02189 C397.2007,376.94718 397.38678,374.81461 397.45939,372.08439 C397.69334,363.66003 399.58909,361.80737 400.11564,354.83439 Z M461.42814,362.27189 C459.08657,363.00088 457.63663,363.42233 456.67814,363.67814 C457.64626,363.41818 459.10714,362.99448 461.42814,362.27189 Z M421.99064,365.42814 C422.62689,365.6883 423.61962,366.11597 424.89689,366.55314 C423.6083,366.11339 422.629,365.6886 421.99064,365.42814 Z M430.20939,367.95939 C430.73915,368.05869 431.27135,368.13148 431.83439,368.20939 C431.27817,368.13269 430.73323,368.05696 430.20939,367.95939 Z M439.24064,368.36564 C438.23431,368.46666 437.26142,368.52072 436.30314,368.52189 C437.2537,368.5209 438.24257,368.46499 439.24064,368.36564 Z M266.42814,374.05314 C263.79323,374.04514 261.42814,374.88399 261.42814,377.86564 C261.42814,383.26102 262.33511,380.5592 262.80314,386.45939 L271.39689,375.61564 C271.54313,375.48949 271.88162,375.21149 272.11564,374.99064 C270.6951,374.57652 268.47751,374.05961 266.42814,374.05314 Z M277.42814,374.99064 C280.20705,379.4079 281.45756,378.15747 282.80314,383.58439 L289.11564,377.49064 C291.13401,375.47132 289.45556,378.52444 290.77189,374.99064 L277.42814,374.99064 Z M297.45939,376.39689 C298.92197,378.73173 299.34655,378.87334 300.89689,381.33439 L304.11564,386.45939 C304.26191,380.14902 305.02061,381.98157 305.45939,376.39689 L297.45939,376.39689 Z M395.55314,379.92814 C395.42935,380.00174 395.3496,380.05605 395.24064,380.11564 C395.34471,380.05814 395.43611,379.99778 395.55314,379.92814 Z M253.45939,380.74064 C252.23082,396.61126 247.66755,396.29062 253.45939,400.86564 L253.45939,393.67814 L257.45939,397.99064 C258.36619,386.03247 268.02223,386.85283 270.77189,397.99064 L273.45939,397.99064 C273.92742,391.86957 276.80653,389.33439 282.80314,389.33439 C293.21675,389.33439 292.19791,391.38241 296.14689,399.42814 L278.20939,400.45939 C260.30733,402.10008 262.56233,398.09663 250.80314,406.61564 C250.45212,402.10373 249.45939,401.50709 249.45939,396.52189 C249.45939,385.28941 250.38796,383.17015 253.45939,380.74064 Z M242.77189,390.80314 C238.85216,392.34919 241.29354,389.05678 238.86564,395.20939 L229.42814,426.77189 C233.05535,418.88392 235.34944,410.87516 238.77189,406.61564 C238.77189,417.5326 237.45939,422.23626 237.45939,432.49064 L238.77189,432.49064 C238.77189,427.82096 239.79387,428.54921 240.11564,422.42814 L242.77189,390.80314 Z M320.02189,406.95939 C316.23783,408.26397 312.28974,409.56819 308.02189,410.89689 C312.28974,409.56819 316.23961,408.26382 320.02189,406.95939 Z M277.89689,415.14689 C279.31687,415.88933 280.76148,416.67503 282.17814,417.33439 C283.24216,417.82962 284.23718,418.24968 285.02189,418.52189 C284.237,418.24844 283.24243,417.83153 282.17814,417.33439 C280.76104,416.67245 279.3173,415.89191 277.89689,415.14689 Z" id="path3045" fill="#14283C"></path>
            <path d="M622.47589,453.86067 C545.60309,479.50666 468.73031,505.15265 391.85751,530.79865 C314.40424,556.63829 241.49224,582.37908 164.26009,608.14495 L164.74858,609.42963 C170.63636,607.46537 176.50286,605.44518 182.4013,603.50898 C189.58827,601.1113 191.59069,601.95385 199.23692,599.37147 C212.4286,594.90748 221.42451,593.41699 233.76993,589.26689 L301.51972,569.52829 C325.41956,561.52351 346.62263,555.92889 371.30706,547.69377 C384.43707,543.31339 393.52229,541.73007 405.81241,537.5984 L465.06011,517.86384 C473.36337,515.12516 477.72927,512.18954 487.23817,509.01724 C495.39261,506.29678 504.59728,503.63509 512.52436,500.6444 C520.48545,497.57932 519.16972,496.82241 534.66416,491.77909 C543.74139,488.78221 548.1732,485.8561 558.15201,482.527 L580.17704,473.60559 C592.44656,467.7814 609.07745,459.7469 622.95381,455.11752 L622.47589,453.86067 Z" id="path3049" fill="#14283C"></path>
            <g id="text2988-Clipped" transform="translate(5.000000, 576.000000)">
                <mask id="mask-2" fill="white">
                    <use xlink:href="#path-1"></use>
                </mask>
                <g id="rect4168" transform="translate(90.181809, 57.890636) rotate(15.600303) translate(-90.181809, -57.890636) "></g>
            </g>
            <g id="text2988-3" transform="translate(391.131491, 472.047077) rotate(-14.155039) translate(-391.131491, -472.047077) translate(199.504921, 423.134415)" fill="#14283C">
                <polyline id="path2997" points="19.1425887 0.439603866 40.0660079 0.439603866 48.5592311 39.143394 70.8539625 0.439603866 92.6178596 0.439603866 79.7453114 73.3081416 63.5993237 73.3081416 73.0214973 19.5230631 50.1074785 59.3005966 40.950722 59.3005966 31.8381922 19.5230631 16.2367481 97.8092094 0.0907699789 97.8092094 19.1425887 0.439603866"></polyline>
                <path d="M224.307252,75.4539454 C220.237533,77.0482983 216.330067,78.252202 212.584835,79.0656458 C208.839517,79.8790897 205.285931,80.2858116 201.924058,80.2858222 C193.047429,80.2858116 185.955005,77.6014427 180.646749,72.2326942 C175.338483,66.8639668 172.68435,59.754443 172.68435,50.9041333 C172.68435,45.079887 173.524819,39.5972614 175.205775,34.4562356 C176.886721,29.2827696 179.363909,24.5647804 182.637358,20.3022681 C186.500579,15.2915077 191.145302,11.4357699 196.571556,8.73506514 C202.027241,6.03449713 207.895819,4.68417105 214.177309,4.68409742 C217.598148,4.68417105 221.033774,5.13970046 224.484197,6.05068565 C227.934514,6.92928328 231.443864,8.27959884 235.012265,10.1016534 L232.26966,25.1829523 C229.438525,22.8077429 226.592699,21.0669676 223.732191,19.9606263 C220.871578,18.8544007 217.804581,18.3012563 214.531198,18.3011932 C207.718883,18.3012563 202.012501,21.1971173 197.412034,26.9887973 C192.811509,32.7805824 190.511265,40.020256 190.511284,48.7078285 C190.511265,54.3043627 191.926804,58.6969617 194.757901,61.8856571 C197.58895,65.074384 201.496416,66.6687369 206.480327,66.6687264 C209.458814,66.6687369 212.614275,66.0830577 215.946737,64.9116784 C219.308592,63.7077957 223.06861,61.8368706 227.226802,59.2988925 L224.307252,75.4539454" id="path2999"></path>
                <polyline id="path3001" points="255.043143 6.00187817 315.911369 6.00187817 313.389906 20.2046531 291.449045 20.2046531 281.097969 78.8704159 264.067229 78.8704159 274.418401 20.2046531 252.477521 20.2046531 255.043143 6.00187817"></polyline>
                <polyline id="path3003" points="336.871216 6.00187817 382.787707 6.00187817 380.266245 20.2046531 351.380494 20.2046531 348.99174 33.7729415 376.196611 33.7729415 373.630912 47.9757164 346.470277 47.9757164 336.56652 96.5656391 319.535876 96.5656391 336.871216 6.00187817"></polyline>
            </g>
            <polygon id="path3011" stroke="#14283C" stroke-width="4.66010712" fill="#14283C" stroke-linecap="round" stroke-linejoin="round" transform="translate(331.573484, 482.743727) rotate(-17.806870) translate(-331.573484, -482.743727) " points="346.593267 479.824174 337.320862 485.749265 339.93087 497.740665 331.606683 490.468326 321.365397 496.736279 325.493171 486.316639 316.553702 478.199043 327.428996 479.031691 332.145388 467.746789 334.738911 478.68103"></polygon>
        </g>
    </g>
</svg>