<?xml version="1.0" encoding="UTF-8"?>
<svg width="543px" height="550px" viewBox="0 0 543 550" version="1.1" xmlns="http://www.w3.org/2000/svg" xmlns:xlink="http://www.w3.org/1999/xlink">
    <!-- Generator: Sketch 50.2 (55047) - http://www.bohemiancoding.com/sketch -->
    <title>Untitled</title>
    <desc>Created with Sketch.</desc>
    <defs></defs>
    <g id="Page-1" stroke="none" stroke-width="1" fill="none" fill-rule="evenodd">
        <g id="mctf" fill="#FFFFFF">
            <path d="M238.74064,0.20939 C235.91036,0.23699 238.14689,6.8249 238.14689,11.49064 C234.89995,16.69671 229.39256,20.25876 226.58439,24.89689 C221.31908,33.60521 227.19047,38.38286 230.11564,43.11564 C232.68979,42.38995 244.91449,34.33033 247.45939,44.55314 C245.11925,43.35417 242.30264,42.39025 238.17814,43.08439 C234.05365,43.81009 234.61474,44.49382 232.77189,47.42814 C236.69162,46.45004 236.85032,45.99064 242.11564,45.99064 C243.78298,49.33514 244.42287,49.72509 244.80314,54.61564 C239.68409,51.99683 238.944,54.45788 232.77189,54.61564 C233.97121,55.71995 231.31763,55.76314 235.64689,56.67814 C237.87001,57.11987 235.51639,56.42905 239.55314,56.33439 C246.04703,56.14508 241.11177,57.53577 247.45939,56.08439 L247.45939,58.92814 C242.4866,60.8528 247.36059,58.97004 244.08439,61.11564 C233.87554,67.80464 243.09592,58.21 234.11564,64.67814 L230.11564,60.39689 C230.58367,66.58106 229.93446,62.97812 232.77189,67.55314 C239.49978,63.73536 235.2104,65.95757 243.45939,66.14689 C246.47231,80.02972 255.45939,106.06493 255.45939,117.89689 C250.6036,114.39463 249.31934,111.51102 245.89689,106.11564 L238.14689,113.58439 L238.14689,73.33439 L232.77189,125.11564 C226.71678,120.72993 230.39205,118.47871 223.45939,116.45939 L232.77189,67.55314 C230.05148,71.81265 230.263,75.0231 228.30314,81.42814 L219.99064,109.86564 C219.28859,112.54755 219.02117,115.47675 218.55314,116.92814 C216.76878,122.70214 220.43401,120.0462 214.11564,120.77189 C214.11564,127.99728 215.45939,129.66034 215.45939,138.05314 L218.11564,138.05314 C219.19795,133.06794 222.66776,126.56325 224.80314,122.24064 C228.10858,124.63858 229.26551,127.33213 231.45939,130.83439 C225.14102,131.40232 223.14239,135.45713 218.95939,138.95939 C213.72333,143.3451 211.82339,142.36564 203.42814,142.36564 C205.2125,145.23686 205.87979,146.33485 207.45939,149.55314 C204.3002,151.3516 202.00612,152.88753 198.11564,153.86564 L198.11564,156.74064 C204.58027,158.6022 199.68226,159.22282 206.14689,161.08439 C205.12308,174.24153 203.42814,185.69824 203.42814,199.92814 L204.80314,199.92814 C204.80314,186.61324 207.88307,174.26191 209.05314,162.24064 L202.11564,153.86564 C206.24014,152.82443 205.99115,152.0631 210.11564,151.02189 C209.06258,146.76238 209.59476,148.6798 207.45939,145.24064 C226.20974,145.24064 222.9533,134.80602 232.92814,137.77189 C257.93836,145.21814 255.12448,135.84451 262.11564,138.05314 C266.00612,140.86126 263.91811,140.97736 268.80314,142.36564 C266.43376,147.19308 268.66237,145.0551 264.77189,148.11564 C263.10454,154.93085 247.24197,166.30949 241.77189,172.17814 C237.20863,177.13179 236.00302,180.7953 233.89689,188.14689 C231.64451,196.00332 233.73355,200.63392 235.45939,208.52189 C221.33081,208.52189 220.15025,210.65173 209.67814,216.67814 C205.99242,218.82368 205.85603,218.27264 203.42814,221.45939 C208.75196,220.13421 222.00642,213.05133 225.89689,213.24064 C251.43364,214.47117 237.89025,216.89418 248.77189,217.17814 C246.72427,213.86521 246.23265,214.26433 246.11564,208.52189 C247.66598,207.73309 246.06604,208.1475 248.08439,208.08439 C248.11359,208.08439 251.25662,208.49034 251.49064,208.52189 L251.49064,202.77189 C254.2988,204.22328 252.66666,203.83107 256.61564,204.17814 L258.11564,198.45939 C263.14693,199.72147 263.57074,199.04877 266.11564,202.77189 C260.79182,204.28639 255.75757,208.13286 252.80314,212.86564 C257.04464,211.63512 254.85343,211.85009 258.33439,210.20939 C260.23575,209.32594 261.31002,208.90292 263.24064,208.27189 C272.57193,205.27446 289.05144,204.13996 296.80314,211.39689 C281.73851,211.39689 272.59524,207.47435 258.11564,215.70939 L260.80314,251.67814 L262.11564,215.70939 C266.03537,214.73129 266.19408,214.27189 271.45939,214.27189 C272.77572,220.36141 273.82512,218.04168 274.14689,225.77189 C274.23469,228.61158 273.79659,229.71407 274.61564,232.49064 C275.7857,236.46617 276.10109,235.01374 276.80314,235.86564 L276.80314,214.27189 C283.47253,214.27189 284.99293,215.70939 292.80314,215.70939 C296.34259,222.96633 297.03898,243.60083 295.45939,251.67814 C282.14986,251.67814 278.88567,252.11701 274.14689,261.77189 C269.40811,258.33275 267.1517,251.20018 257.61564,255.42814 C252.49659,257.69988 248.9474,263.07717 248.77189,270.36564 C255.44128,262.1306 250.84624,257.42814 266.11564,257.42814 L270.30314,264.42814 C270.44939,264.68056 270.71938,265.05104 270.86564,265.27189 L272.80314,268.95939 C267.09906,268.95939 250.94034,269.56673 247.45939,274.67814 C254.33354,272.94278 261.60539,271.83439 270.14689,271.83439 C272.13601,275.74683 271.49064,280.60703 271.49064,284.77189 L272.86564,314.92814 C273.04116,319.94491 272.80314,325.69173 272.80314,330.80314 L275.39689,289.02189 C275.51389,281.95427 276.65688,282.52038 276.80314,276.14689 C282.36096,277.53516 286.87831,278.91093 292.55314,280.70939 C305.02921,284.66578 303.20373,298.55998 302.39689,321.24064 C288.62728,326.29407 283.31157,328.79727 272.33439,332.52189 C271.00446,332.97314 269.61473,333.46323 268.08439,333.95939 C269.59786,333.46354 270.99497,332.97636 272.33439,332.52189 C265.0236,333.18692 256.19592,334.48885 249.14689,336.92814 C245.84145,338.09556 247.41781,338.32685 244.52189,339.11564 C237.20896,341.10342 215.64987,339.42814 207.45939,339.42814 C208.4247,335.01088 209.51351,333.89764 211.67814,330.55314 L218.11564,336.52189 C215.92176,326.42529 214.32044,329.21722 209.08439,328.39689 C203.73132,327.54498 208.75379,326.68086 202.08439,326.39689 C198.10616,326.23905 197.30225,327.27159 195.45939,327.30314 C192.06619,327.30314 184.77377,325.76223 178.39689,326.77189 C177.95812,326.83509 172.17197,328.07985 170.70939,328.55314 C167.22843,329.65745 168.48686,329.88814 164.77189,330.80314 C164.77189,320.42257 165.05693,323.82896 168.77189,317.86564 C162.33652,319.31703 166.90727,319.00152 164.77189,317.86564 C167.69706,311.33442 164.20319,307.572 167.77189,302.33439 C170.90183,297.75937 172.21811,296.71997 172.80314,289.08439 C167.27457,287.69612 164.34625,283.87078 158.11564,283.33439 L158.11564,274.67814 C167.50544,271.96467 160.02648,270.39751 154.14689,270.33439 C147.00947,270.27119 146.71199,269.14932 140.80314,268.89689 C139.37346,268.83379 137.99344,268.79749 136.64689,268.80319 C127.22102,268.84279 119.64986,270.36569 111.45939,270.36569 C113.79952,274.15192 112.12086,273.35301 116.77189,274.67819 L116.77189,284.77194 C113.52495,284.86664 105.0775,286.5144 103.14689,287.30319 C98.64212,289.16476 98.73176,292.26484 96.77189,296.27194 C106.57122,295.10452 95.69693,291.95112 107.86564,289.55319 C124.01259,286.39799 139.46053,289.08444 154.11564,289.08444 C154.70068,296.78311 155.71682,291.27224 156.74064,297.77194 C157.53043,302.91489 158.38821,310.63305 152.77189,312.08444 C152.77189,315.71291 152.41686,321.89649 152.70939,325.20944 C153.55769,334.26484 152.15194,323.3254 155.42814,330.80319 C159.60775,340.30175 157.83346,357.59712 161.86564,370.99069 L146.30314,376.45944 L146.27194,376.45944 L140.77194,376.80319 C135.12545,377.11771 128.43681,378.41492 125.55319,383.67819 C114.71937,387.27771 104.10604,391.1028 93.58444,395.02194 C93.91009,391.36512 94.11569,388.0792 94.11569,385.42819 C100.84358,381.95747 110.25263,382.39134 115.45944,379.70944 C112.88528,375.57612 108.66242,372.45506 104.77194,369.64694 C106.41003,366.27089 107.04792,365.88123 107.42819,360.99069 L119.42819,360.99069 C135.95542,360.99069 132.00956,355.62942 134.11569,350.92819 C124.28711,350.92819 101.83815,352.70236 94.11569,356.70944 C94.11569,365.44932 96.10515,357.30696 96.86569,366.70944 C97.07045,369.35979 96.77199,373.93166 96.77199,376.83444 C91.36042,378.19116 91.34797,378.30725 87.42824,381.14694 L87.77199,397.17819 C69.17084,404.172 50.75409,411.36172 31.77199,417.89694 C25.4987,420.04931 27.71409,420.12345 22.30324,422.17819 C18.73318,423.54593 14.10695,424.49053 10.52199,425.83444 C5.67603,427.68483 6.50061,428.41211 0.92824,430.14694 L1.58449,431.20944 L152.74074,384.17819 C152.74674,384.16759 152.73474,384.15759 152.74074,384.14699 L273.27199,346.64699 C363.46033,318.56873 451.49119,292.47342 542.67814,264.08439 L400.89689,295.67814 C401.33636,295.98378 401.3777,296.31266 401.11564,296.64689 C399.86842,292.0887 397.29061,289.21636 391.45939,289.08439 C391.45939,284.00455 390.23339,268.03516 390.58439,266.64689 C391.3157,263.71257 393.07585,261.9289 393.86564,258.58439 C394.45068,256.06023 394.88835,251.00937 395.67814,249.05314 C397.31624,244.98297 402.63866,244.13163 406.17814,235.92814 C408.86931,229.68086 409.24628,225.49877 406.58439,218.11564 C403.89322,210.57473 397.16346,202.97131 391.45939,198.45939 C388.94374,196.44007 388.27556,195.48022 385.58439,193.30314 C376.37009,185.82534 370.68476,170.48053 364.83439,168.27189 C368.60787,174.39296 367.82129,169.64977 369.45939,179.14689 C370.80498,186.84555 368.41019,195.3116 363.11564,200.95939 C360.71699,203.48354 358.72633,204.08394 355.77189,207.39689 C337.66508,227.81096 350.22323,237.47223 355.45939,245.92814 C370.55327,245.92814 379.86029,244.37137 390.30314,250.30314 L388.80314,256.02189 C383.45007,252.14102 374.68657,253.11564 367.49064,253.11564 L367.49064,254.55314 C372.81446,254.55314 374.45334,255.32683 379.39689,256.11564 C386.53433,257.21995 386.00062,256.29985 386.14689,263.17814 C378.27818,261.22193 381.40881,258.89689 370.14689,258.89689 C372.54554,263.78742 374.33261,267.90295 370.64689,273.80314 C368.57003,277.1161 363.87458,279.68826 360.80314,281.89689 L360.80314,290.52189 C365.60044,292.38346 364.50879,292.91728 366.14689,300.58439 C374.89316,299.7956 371.99653,293.04606 382.14689,290.52189 C386.01672,293.28506 387.96859,294.96914 388.64689,300.74064 L379.49064,301.55314 C377.20371,301.43811 374.81271,301.35757 372.49064,301.39689 C367.70524,301.47789 363.31386,302.06096 361.24064,303.89689 L360.20939,305.30314 C360.03041,305.35824 359.93675,305.39834 359.74064,305.45939 L359.45939,305.55309 C359.50739,293.76695 360.55018,285.97586 356.80314,277.55309 C368.24057,276.54343 372.99539,263.4317 357.05314,249.99059 C348.54091,242.79676 346.91108,237.14157 343.45939,234.42809 C345.56549,244.14609 351.61086,247.825 356.11564,255.33434 C359.68433,261.29765 358.53465,263.18533 354.14689,268.95934 C345.98566,268.95934 338.80574,269.04304 332.89689,273.36559 L331.49064,274.67809 C337.86752,274.11016 341.72241,273.27184 350.14689,273.27184 L350.14689,274.67809 C343.536,274.67809 337.60425,277.55309 331.49064,277.55309 L331.49064,279.02184 C346.6723,279.02184 337.46958,275.91617 355.45939,280.42809 C357.21449,288.53694 356.80314,294.98954 356.80314,304.89684 C349.51946,301.14215 338.65732,304.73899 331.49064,304.89684 L331.20939,305.14684 C331.20439,305.14705 331.18169,305.14584 331.17819,305.14684 C326.42369,307.56111 322.56574,309.654 319.36569,311.45934 C319.43409,310.45316 319.49069,309.30674 319.49069,307.80309 C325.66282,306.00462 327.34061,301.58645 328.80319,294.83434 L327.89694,292.92809 C326.22959,288.73168 326.10158,285.22746 319.49069,283.33434 C321.86007,278.47536 319.56889,280.64517 323.45944,277.55309 C327.99347,281.11844 328.80319,286.7255 328.80319,294.83434 C330.55829,297.86333 329.73813,298.73138 330.61569,302.95934 C330.67419,303.21174 330.96145,304.14867 330.99069,303.95934 C331.04919,303.8015 331.3152,304.61287 331.49069,304.89684 C331.49069,292.11831 332.75344,290.20434 328.36569,280.92809 L323.39689,271.83439 C317.42955,259.18209 336.81748,250.06534 339.77189,238.99064 C340.9712,234.44715 339.6057,234.95727 339.45939,228.64689 L343.45939,227.24064 C342.75736,220.42545 342.67527,225.63782 340.80314,220.05314 C341.00783,219.80072 341.30916,219.3984 341.39689,219.24064 C353.47787,201.2245 349.80234,210.81445 359.39689,199.83439 C366.41732,191.78865 367.49064,189.31067 367.49064,175.45939 L366.14689,175.45939 C366.14689,188.93205 354.48363,200.37395 346.14689,202.77189 C349.92036,196.71393 362.14689,192.32199 362.14689,174.02189 L360.80314,174.02189 C360.80314,181.43659 359.48194,184.61746 353.86564,190.95939 C350.0044,195.31355 346.56392,199.5536 342.14689,202.77189 C344.10675,194.78927 347.82357,199.59148 340.80314,195.58439 C340.2181,203.1884 339.16506,198.13753 340.80314,205.64689 C335.42083,209.52777 330.2245,215.87937 328.61564,224.24064 C327.65033,229.22584 327.60125,231.31733 329.67814,236.36564 C331.60876,241.00376 333.06458,241.51088 334.14689,245.92814 C329.52511,247.09556 327.93106,249.15429 324.77189,251.64689 C320.12086,255.33847 320.8673,254.78156 318.14689,260.30314 C312.00403,255.88586 315.97547,254.55314 306.14689,254.55314 C306.14689,251.52416 306.58837,247.69746 306.64689,245.67814 C306.73459,241.19778 304.40394,229.68237 307.70939,222.70939 L303.45939,217.17814 C307.96417,218.28247 306.84816,219.14131 310.70939,216.45939 C344.61215,193.01634 303.50182,163.2364 291.77189,150.61564 C273.66507,131.14812 286.31178,134.17481 275.45939,127.99064 C270.80837,131.36669 270.14689,132.6931 270.14689,140.92814 C264.91083,136.85795 270.18779,143.15442 267.58439,129.30314 C266.53133,123.59224 265.59748,121.29196 263.95939,115.92814 C260.24442,103.90687 247.56074,73.60945 249.95939,64.45939 C252.007,56.66608 249.18796,58.67391 247.95939,52.58439 C247.16959,48.6404 249.67686,45.79377 250.11564,40.24064 C242.6857,36.01268 238.88933,36.01268 231.45939,40.24064 C232.83422,34.6244 236.81525,33.48067 243.39689,34.52189 C251.38261,35.78396 246.16117,39.03401 254.14689,34.49069 C254.14689,16.06438 248.90077,23.06148 242.55314,12.39694 C237.87286,4.54052 245.12767,2.88713 240.27189,0.64694 C239.63932,0.35903 239.14497,0.2055 238.74064,0.20944 L238.74064,0.20939 Z M264.77189,148.11564 C262.60726,139.2811 257.60408,142.41485 250.11564,143.80314 C236.63059,146.29574 243.09774,143.54695 232.77189,140.92814 C235.11203,144.68282 238.57618,146.96589 242.11564,149.55314 C248.46326,147.944 258.1025,144.67648 264.77189,148.11564 Z M274.14689,84.83439 C274.14689,99.31671 275.9349,107.8593 271.45939,115.05314 C273.50701,118.23988 271.6859,116.82413 275.45939,117.89689 C274.72809,121.27294 274.23464,122.16743 274.14689,126.55314 L276.80314,126.55314 C277.30042,119.80103 286.63354,115.39644 275.45939,112.17814 C275.45939,102.42861 276.80314,96.06687 276.80314,84.83439 L274.14689,84.83439 Z M243.45939,119.36564 C248.57843,120.81703 246.39595,120.53488 249.58439,125.70939 C252.4218,130.28441 252.91832,128.75544 254.14689,133.74064 C248.64757,134.21392 251.14694,135.17814 246.11564,135.17814 C241.25985,135.17814 242.97526,133.86685 236.80314,133.74064 C237.38818,126.19974 241.55802,127.0643 243.45939,119.36564 Z M363.55314,123.49064 C363.37768,144.88282 364.83439,134.13437 364.83439,145.24064 L366.14689,145.24064 C366.14689,141.54907 365.93609,137.2438 366.05319,133.64689 C366.25789,128.03065 366.81409,128.33394 368.80319,125.11564 L363.55319,123.49064 L363.55314,123.49064 Z M263.45939,126.55314 C264.4247,131.00196 265.15033,130.72932 266.11564,135.17814 C262.42992,132.52778 257.72605,131.06506 263.45939,126.55314 Z M140.77189,129.42814 C140.77189,143.35749 137.1465,145.80394 139.42814,161.61564 C146.21454,154.32156 142.11564,157.99272 142.11564,129.42814 L140.77189,129.42814 Z M367.24064,150.95939 C365.188,150.96639 362.14689,151.5819 362.14689,156.74064 C362.14689,159.80117 365.58927,159.61564 367.49064,159.61564 C369.30423,156.11338 368.80314,156.9852 368.80314,151.02189 C368.48868,151.02989 367.92485,150.95689 367.24064,150.95939 Z M275.55314,158.86564 L282.11564,162.49064 C273.42788,164.69927 278.45055,162.49064 271.45939,162.49064 C267.74442,162.49064 272.98286,162.72675 269.20939,164.17814 C269.06314,164.24124 268.66416,164.36503 268.45939,164.42814 L263.80314,164.36564 C257.60178,165.69082 263.9113,168.93102 256.80314,165.36564 C259.05552,162.0527 260.28983,161.28004 265.58439,160.42814 L270.99064,161.36564 L275.55314,158.86564 Z M286.20939,159.92814 C287.04203,159.87244 287.99242,159.96694 288.99064,159.99064 C290.07987,163.76487 290.28697,161.05777 290.70939,160.05314 C295.44818,160.58952 295.60383,160.6013 296.80314,165.36564 C287.15008,158.42423 289.86751,168.26464 283.49064,162.49064 C283.80144,160.53837 284.82165,160.02088 286.20939,159.92814 Z M140.77189,165.36564 C142.38073,167.98445 142.21083,167.18252 143.14689,169.99064 C147.6224,183.4633 144.3823,172.41019 150.11564,184.08439 C144.20679,182.38059 142.11564,176.55646 142.11564,169.67814 L140.77189,169.67814 C140.77189,178.1656 142.6948,182.71363 148.42814,188.80314 L153.36564,193.52189 C161.08809,201.69383 160.10475,205.05874 158.11564,214.27189 C157.94012,213.98792 157.70539,213.17633 157.64689,213.36564 C157.58839,213.58651 157.2679,212.61776 157.20939,212.39689 C156.85837,211.45034 156.47265,210.09344 156.20939,209.14689 C155.30258,205.96015 155.14145,205.07578 154.14689,202.70939 C151.92376,197.47178 151.25084,197.71527 147.74064,193.83439 C141.39301,186.76676 139.42814,180.89643 139.42814,171.14689 L138.11564,171.14689 C138.11564,192.9808 137.63647,184.52733 144.80314,197.02189 C148.45961,203.39537 152.96054,215.09949 146.11564,220.05314 L137.24064,196.52189 C132.12159,180.27266 136.77189,176.09676 136.77189,168.27189 L135.42814,168.27189 C135.42814,172.24743 135.25845,173.0927 134.14689,175.49064 C134.05909,175.71151 131.42742,180.07866 130.95939,180.67814 C128.67776,183.83333 129.22104,182.59572 126.64689,184.67814 C113.62987,195.18493 101.94598,208.31115 117.30314,223.80314 L119.42814,227.24064 C130.39754,221.5613 142.33651,225.77189 148.77189,225.77189 L148.77189,227.24064 C139.85011,227.24064 139.75809,223.53549 119.42814,228.64689 L117.80314,244.45939 C121.72287,241.61973 120.88707,240.07594 122.11564,234.42814 C152.74219,226.72949 144.92677,250.59874 155.42814,258.89689 C155.42814,251.82925 156.30386,247.87679 156.77189,240.17814 C157.21066,233.04741 161.07006,230.95999 158.11564,224.36564 C161.18707,224.08167 160.76168,225.31385 164.27189,220.92814 C164.53516,220.61262 165.22538,219.68145 165.45939,219.33439 C176.19477,203.02206 155.64766,185.57352 151.08439,180.17814 C148.51024,177.11761 148.33949,176.09178 146.58439,172.05314 C144.215,166.59466 145.65692,166.78548 140.77189,165.36564 Z M283.52189,166.08439 C283.73442,166.03259 282.21181,166.43606 285.67814,167.24064 C292.08426,168.75513 287.02274,165.31839 293.89689,166.99064 L295.49064,167.45939 C297.2165,167.74336 298.74987,164.98068 303.45939,172.55314 C301.55804,173.59435 302.28069,176.57382 292.80314,171.14689 C288.26912,174.39674 289.89659,175.56416 282.11564,171.14689 C276.93809,174.08122 276.24651,175.59812 269.92814,170.89689 L264.74064,175.52189 L259.70939,172.77189 L255.45939,178.33439 C247.67843,172.6866 256.09048,177.41939 246.11564,178.33439 C250.12313,170.194 249.69008,172.30948 254.89689,171.64689 C258.64111,171.17361 256.87724,170.02853 259.33439,169.33439 L270.14689,168.27189 C273.94962,168.27189 268.67754,165.19822 274.61564,166.36564 C279.8517,167.3753 273.6383,168.27189 279.45939,168.27189 C282.1213,168.27189 279.65323,166.74517 282.49064,166.27189 C283.2,166.15357 283.45105,166.10165 283.52189,166.08439 Z M294.11564,175.45939 C300.96056,185.52445 300.60521,173.5844 307.77189,180.11564 L300.80314,186.95939 C298.87252,183.83575 298.28281,181.98324 295.24064,179.49064 L289.02189,185.27189 L283.49064,178.33439 C279.98043,180.85855 279.73014,181.65489 275.45939,184.08439 C272.3002,182.28593 270.94234,180.7503 267.49064,179.74064 L263.45939,185.52189 C258.51585,184.10205 261.74668,184.06673 256.80314,182.64689 C252.47389,185.77053 253.83077,185.00726 251.49064,189.80314 C248.3022,187.53141 250.06462,188.09526 246.11564,186.95939 C244.82856,192.16545 246.00995,190.79861 240.80314,191.27189 C241.70994,187.07549 243.10654,184.61699 244.80314,181.20939 C248.2841,182.09284 248.74097,182.50679 251.49064,184.08439 C252.07567,181.37093 251.80858,181.69686 252.80314,179.74064 C254.85076,180.27702 256.25935,180.89719 256.99064,180.86564 C262.92874,180.73943 260.8505,175.73355 267.49064,179.74064 C270.56207,174.9763 268.85705,176.88874 274.67814,177.74064 C283.07338,178.93961 276.32308,177.72114 281.64689,176.49064 C288.08227,174.97615 284.34557,182.49546 294.11564,175.45939 Z M132.77189,182.64689 C130.81202,190.56642 121.43833,191.0254 139.42814,220.05314 C135.21589,221.09435 130.32788,221.85537 126.11564,222.92814 C112.12732,224.27974 116.7289,208.52725 116.77189,202.77189 L118.11564,202.77189 C118.11564,211.1016 129.05509,226.89614 134.11564,217.17814 C124.25781,214.33848 120.99603,198.51569 127.02189,189.36564 C129.04026,186.27355 130.13923,184.54001 132.77189,182.64689 Z M283.30314,185.42814 C284.32329,185.50304 284.95654,187.02657 288.80314,189.80314 C291.78682,188.13089 292.79749,187.415 295.45939,185.52189 C307.68662,205.17872 299.59452,184.36581 306.14689,194.14689 C302.63669,195.03035 302.22633,195.47343 299.27189,197.27189 L294.11564,192.70939 C285.39863,197.66304 288.08299,195.5945 282.11564,191.27189 C279.45373,193.19656 278.44306,193.88059 275.45939,195.58439 L269.92814,191.02189 L264.77189,195.58439 C260.85216,194.60628 260.7247,194.14689 255.45939,194.14689 C253.55803,201.90866 255.52429,194.53911 248.24064,199.27189 C243.64813,202.26932 242.11564,198.07443 242.11564,205.64689 L240.80314,205.64689 C240.80314,202.39704 240.1338,198.5388 241.77189,196.77189 C243.90727,194.4686 242.19408,196.9449 247.45939,198.45939 C247.75191,194.51541 247.57256,195.3282 248.77189,192.70939 C253.53992,193.78215 255.19429,193.49064 256.80314,186.95939 C258.47049,187.9375 261.20701,189.80314 263.45939,189.80314 C264.30769,189.80314 267.31131,186.59465 268.80314,185.52189 C271.78682,187.19414 272.79748,187.91003 275.45939,189.80314 C280.87095,186.72683 282.28299,185.3532 283.30314,185.42814 Z M191.45939,186.95939 C191.45939,197.43462 189.85054,202.51284 191.45939,209.99064 C191.66415,209.73822 191.96739,208.95698 192.08439,209.20939 L195.45939,207.11564 C195.34239,202.03579 194.64783,190.93493 191.45939,186.95939 Z M372.80314,186.95939 C376.48883,189.89372 377.57822,193.20215 376.11564,200.49064 C374.97481,206.32774 373.48176,210.16954 371.52189,214.33439 C367.77769,222.15925 362.14689,229.00876 362.14689,240.17814 C358.49041,240.49365 359.23103,240.2904 356.80314,241.61564 C350.60177,212.87185 372.80314,209.55055 372.80314,186.95939 Z M384.80314,201.33439 C386.32424,202.40715 389.9296,204.56748 390.86564,206.33439 C393.58605,211.31959 392.8972,220.68689 390.61564,226.30314 C386.84217,235.57939 378.8054,238.70939 370.14689,238.70939 C373.80337,232.84074 377.5602,230.68961 380.86564,222.95939 C383.73233,216.20729 384.80314,211.46255 384.80314,201.33439 Z M236.11564,218.55314 C226.40636,218.55414 214.50047,218.92282 207.89689,221.92814 C203.80165,223.75814 204.53971,222.72872 203.42814,227.24064 C208.69345,227.71391 208.0869,228.70802 212.24064,232.11564 C220.22636,238.70998 230.11564,243.67152 230.11564,257.42814 C230.11564,267.36699 225.25489,273.9209 216.77189,274.67814 C213.90522,320.64926 216.66989,292.59362 225.24064,314.49064 C227.81479,321.05344 228.80314,326.34421 228.80314,335.11564 C234.0392,335.24179 234.6528,336.52189 244.80314,336.52189 L244.80314,281.89689 L239.45939,281.89689 C242.67708,267.06751 250.15633,259.92345 251.20939,257.14689 C252.78898,252.95048 250.36959,251.04303 255.45939,248.83439 L255.45939,245.92814 C253.35327,245.01314 251.2755,248.87754 253.61564,237.83439 C253.64484,237.67654 253.71334,237.2734 253.77189,237.11564 C253.80109,236.9895 253.93015,236.61685 253.95939,236.49064 L254.14689,221.45939 L250.42814,220.95939 C244.92882,219.57112 250.0392,218.58439 244.80314,218.58439 C242.33137,218.58439 239.35207,218.55269 236.11564,218.55319 L236.11564,218.55314 Z M188.80314,220.05314 C187.48681,226.07955 187.40565,227.58275 182.95939,231.02189 C179.24442,233.89312 177.2681,235.18131 173.55314,238.11564 C164.66061,245.18325 163.55281,247.55616 160.80314,260.30314 C171.9188,274.12286 164.58204,271.51691 183.30314,268.77189 C197.63648,266.68947 196.43804,268.27356 206.64689,271.36564 C209.3673,272.186 212.56347,271.83439 215.45939,271.83439 C222.15803,261.01209 230.83546,254.41921 212.55314,239.02189 C210.44701,237.25498 209.0755,235.47993 207.11564,233.33439 C202.72788,228.57005 199.60565,228.03578 199.45939,220.05314 C191.38591,220.24247 192.57095,221.02114 191.45939,224.36564 C191.31314,224.05011 191.04914,223.30133 190.99064,223.49064 L188.80314,220.05314 Z M160.80314,260.30314 L152.77189,260.30314 L156.49064,264.92814 L160.80314,260.30314 Z M399.49064,222.92814 L402.14689,232.99064 C393.25438,239.42725 389.6571,245.46149 386.14689,238.70939 C393.86933,238.01524 398.84709,231.19473 399.49064,222.92814 Z M194.11564,224.36564 C194.11564,235.25104 191.11258,235.91821 187.86564,243.49064 C183.71189,253.11398 186.11564,254.77146 186.11564,264.61564 C182.42993,264.93116 183.22903,264.75915 180.77189,266.08439 C179.13379,262.36128 178.11564,257.29436 178.11564,251.67814 C178.11564,245.11534 182.90594,241.24592 186.24064,237.42814 C194.0216,228.49895 188.65267,234.78577 192.39689,226.80314 C193.30369,224.84693 193.23809,225.4384 194.11564,224.36564 Z M198.11564,230.11564 L199.45939,230.11564 C199.45939,238.95016 207.55756,245.93419 200.30314,258.36564 C198.28477,261.8679 197.27865,262.79953 192.80314,263.17814 C199.8528,251.81945 198.11564,247.97401 198.11564,230.11564 Z M283.49064,232.99064 L283.49064,250.24064 L286.14689,250.24064 L286.14689,232.99064 L283.49064,232.99064 Z M203.42814,234.42814 C210.91658,239.82351 212.80314,245.16805 212.80314,256.02189 C208.44464,259.14554 209.68801,260.19431 203.42814,261.77189 C207.08461,255.87169 210.11564,256.79966 210.11564,247.36564 C210.11564,243.6425 204.97848,240.61232 203.42814,234.42814 Z M127.45939,240.17814 L127.45939,254.55314 C131.70089,251.17709 130.11564,247.97145 130.11564,240.17814 L127.45939,240.17814 Z M142.11564,240.17814 C137.87415,243.55419 139.42814,246.75983 139.42814,254.55314 L142.11564,254.55314 L142.11564,240.17814 Z M175.45939,241.61564 C167.94169,253.7 171.59251,256.98386 178.11564,267.49064 C173.28911,268.59495 171.49795,268.4082 166.11564,257.42814 C166.96394,253.48416 167.18503,250.92798 169.11564,247.67814 L171.92814,243.58439 C173.771,241.62818 172.68047,242.40443 175.45939,241.61564 Z M288.92814,255.89689 C294.15607,255.95879 299.27896,259.00112 299.49064,268.95939 C295.98044,267.06628 300.54918,267.49064 295.45939,267.49064 C288.96551,267.49064 277.42308,268.97358 274.14689,267.49064 C275.49247,264.74562 276.1585,261.60552 278.61564,259.39689 C280.36251,257.84592 284.08528,256.15971 287.89689,255.92814 C288.24507,255.90704 288.57961,255.89264 288.92814,255.89694 L288.92814,255.89689 Z M131.45939,257.42814 C126.74986,260.83574 128.55285,260.30314 120.77189,260.30314 C123.14128,265.13058 120.8814,262.99231 124.77189,266.08439 C128.07733,263.68645 130.28932,262.12937 131.45939,257.42814 Z M310.49064,258.86564 C311.22422,258.86264 312.00603,258.89684 312.80314,258.89684 C314.90924,263.18789 316.68614,266.70904 316.80314,273.27184 C315.75011,271.91511 316.3435,273.90454 314.64689,269.83434 C312.01423,263.58706 314.62899,261.96117 306.14689,261.77184 C306.54178,259.21614 308.2899,258.87446 310.49064,258.86559 L310.49064,258.86564 Z M135.42814,258.89684 C136.77372,262.84083 138.02223,263.90726 140.77189,266.08434 C143.66781,263.97037 145.38252,263.33206 147.45939,260.30309 C141.52129,261.81758 140.83971,261.67341 135.42814,258.89684 Z M111.45939,260.30314 C112.4832,272.86078 112.38796,255.09074 115.45939,267.49064 C119.84715,264.01993 116.94175,265.95092 119.42814,260.30314 L111.45939,260.30314 Z M303.45939,263.17814 C306.99886,265.00816 304.87958,264.48943 310.11564,264.61564 L310.11564,270.36564 C306.89795,269.57685 304.77955,268.87891 302.14689,267.49064 C303.28769,265.75528 302.84511,265.7654 303.45939,263.17814 Z M189.83439,271.61564 C184.19814,271.60564 178.6076,272.92881 175.45939,277.55314 C179.55463,276.54348 190.27712,274.2316 194.92814,275.17814 C196.06896,275.43056 202.81185,277.39358 203.39689,277.74064 C205.2105,278.8134 205.13906,277.93255 206.39689,280.74064 C208.386,285.22102 207.75757,282.38785 204.80314,283.33439 L204.80314,294.83439 C208.3426,296.38042 207.28388,291.87608 207.45939,300.58439 C194.38387,297.303 170.35149,293.07626 168.77189,313.52189 C173.36442,309.89342 171.68026,304.89689 178.11564,304.89689 C182.82517,304.89689 182.25442,309.0554 186.11564,312.08439 C188.66054,301.79848 200.94175,301.97389 203.42814,313.52189 L206.30314,306.39689 C211.36369,306.46009 209.23443,305.97312 212.80314,307.80314 C211.77933,303.76449 207.24658,298.46618 212.36564,281.42814 C214.14999,275.49638 214.11564,282.33105 214.11564,276.14689 C214.11564,272.0136 209.83533,274.46271 206.64689,274.11564 C204.37622,273.84943 197.081,271.62853 189.83439,271.61564 Z M247.45939,276.14689 L249.11564,333.67814 L250.11564,333.67814 C250.11564,323.64463 251.49064,319.62153 251.49064,309.20939 L251.49064,276.14689 L247.45939,276.14689 Z M194.77189,280.17814 C194.34043,280.12684 194.0684,281.25545 193.83439,286.24064 C193.48337,294.09707 193.81749,292.10326 196.77189,293.39689 L196.77189,281.14689 C195.80658,281.44664 195.20335,280.22941 194.77189,280.17814 Z M319.49064,284.77189 C323.81991,287.92708 322.43373,287.13195 324.80314,291.95939 C322.11197,298.04892 325.0484,296.54576 319.49064,300.58439 L319.49064,284.77189 Z M339.45939,287.61564 C339.45939,294.62016 338.84145,295.07671 342.14689,299.14689 L339.45939,287.61564 Z M395.49064,293.39689 C397.57919,295.03529 398.51992,296.02793 398.99064,297.86564 C399.49586,297.65811 399.93796,297.44273 400.30314,297.24064 C399.95193,297.44331 399.4841,297.66295 398.99064,297.86564 C397.04665,298.66414 394.31368,299.4151 391.83439,300.05314 C392.48781,296.59062 392.56148,295.69957 395.49064,293.39689 Z M110.05314,294.64689 L100.77189,297.74064 C101.32768,304.80826 103.42814,302.99368 103.42814,309.20939 L102.11564,348.05314 C105.04082,344.42467 104.36437,345.95939 104.80314,339.42814 C107.58205,297.84275 113.32898,309.0652 128.80314,307.80314 C137.31539,307.10899 132.21925,306.33439 147.45939,306.33439 L147.45939,304.89689 C142.01857,304.89689 142.5034,304.71762 138.11564,300.58439 C130.83196,305.82201 132.69727,303.87969 126.11564,299.14689 C125.88163,299.36776 125.54315,299.67663 125.39689,299.83439 C125.25062,299.96053 124.8849,300.33288 124.70939,300.49064 C124.44612,300.71149 123.44141,301.55134 123.17814,301.74064 C121.94957,302.71876 121.53243,302.923 120.77189,303.45939 C117.29094,297.84316 116.26033,297.76239 108.77189,302.02189 C109.35692,300.5705 109.96538,297.01328 110.05314,294.64689 Z M310.11564,294.83439 L312.80314,294.83439 C313.98115,300.32863 313.8171,307.25128 313.45939,314.92814 C310.45295,316.76227 308.37733,318.11203 306.99064,319.02189 C307.2007,316.94718 307.38678,314.81461 307.45939,312.08439 C307.69334,303.66003 309.58909,301.80737 310.11564,294.83439 Z M371.42814,302.27189 C369.08657,303.00088 367.63663,303.42233 366.67814,303.67814 C367.64626,303.41818 369.10714,302.99448 371.42814,302.27189 Z M331.99064,305.42814 C332.62689,305.6883 333.61962,306.11597 334.89689,306.55314 C333.6083,306.11339 332.629,305.6886 331.99064,305.42814 Z M340.20939,307.95939 C340.73915,308.05869 341.27135,308.13148 341.83439,308.20939 C341.27817,308.13269 340.73323,308.05696 340.20939,307.95939 Z M349.24064,308.36564 C348.23431,308.46666 347.26142,308.52072 346.30314,308.52189 C347.2537,308.5209 348.24257,308.46499 349.24064,308.36564 Z M176.42814,314.05314 C173.79323,314.04514 171.42814,314.88399 171.42814,317.86564 C171.42814,323.26102 172.33511,320.5592 172.80314,326.45939 L181.39689,315.61564 C181.54313,315.48949 181.88162,315.21149 182.11564,314.99064 C180.6951,314.57652 178.47751,314.05961 176.42814,314.05314 Z M187.42814,314.99064 C190.20705,319.4079 191.45756,318.15747 192.80314,323.58439 L199.11564,317.49064 C201.13401,315.47132 199.45556,318.52444 200.77189,314.99064 L187.42814,314.99064 Z M207.45939,316.39689 C208.92197,318.73173 209.34655,318.87334 210.89689,321.33439 L214.11564,326.45939 C214.26191,320.14902 215.02061,321.98157 215.45939,316.39689 L207.45939,316.39689 Z M305.55314,319.92814 C305.42935,320.00174 305.3496,320.05605 305.24064,320.11564 C305.34471,320.05814 305.43611,319.99778 305.55314,319.92814 Z M163.45939,320.74064 C162.23082,336.61126 157.66755,336.29062 163.45939,340.86564 L163.45939,333.67814 L167.45939,337.99064 C168.36619,326.03247 178.02223,326.85283 180.77189,337.99064 L183.45939,337.99064 C183.92742,331.86957 186.80653,329.33439 192.80314,329.33439 C203.21675,329.33439 202.19791,331.38241 206.14689,339.42814 L188.20939,340.45939 C170.30733,342.10008 172.56233,338.09663 160.80314,346.61564 C160.45212,342.10373 159.45939,341.50709 159.45939,336.52189 C159.45939,325.28941 160.38796,323.17015 163.45939,320.74064 Z M152.77189,330.80314 C148.85216,332.34919 151.29354,329.05678 148.86564,335.20939 L139.42814,366.77189 C143.05535,358.88392 145.34944,350.87516 148.77189,346.61564 C148.77189,357.5326 147.45939,362.23626 147.45939,372.49064 L148.77189,372.49064 C148.77189,367.82096 149.79387,368.54921 150.11564,362.42814 L152.77189,330.80314 Z M230.02189,346.95939 C226.23783,348.26397 222.28974,349.56819 218.02189,350.89689 C222.28974,349.56819 226.23961,348.26382 230.02189,346.95939 Z M187.89689,355.14689 C189.31687,355.88933 190.76148,356.67503 192.17814,357.33439 C193.24216,357.82962 194.23718,358.24968 195.02189,358.52189 C194.237,358.24844 193.24243,357.83153 192.17814,357.33439 C190.76104,356.67245 189.3173,355.89191 187.89689,355.14689 Z" id="path3045"></path>
            <path d="M532.47589,393.86067 C455.60309,419.50666 378.73031,445.15265 301.85751,470.79865 C224.40424,496.63829 151.49224,522.37908 74.26009,548.14495 L74.74858,549.42963 C80.63636,547.46537 86.50286,545.44518 92.4013,543.50898 C99.58827,541.1113 101.59069,541.95385 109.23692,539.37147 C122.4286,534.90748 131.42451,533.41699 143.76993,529.26689 L211.51972,509.52829 C235.41956,501.52351 256.62263,495.92889 281.30706,487.69377 C294.43707,483.31339 303.52229,481.73007 315.81241,477.5984 L375.06011,457.86384 C383.36337,455.12516 387.72927,452.18954 397.23817,449.01724 C405.39261,446.29678 414.59728,443.63509 422.52436,440.6444 C430.48545,437.57932 429.16972,436.82241 444.66416,431.77909 C453.74139,428.78221 458.1732,425.8561 468.15201,422.527 L490.17704,413.60559 C502.44656,407.7814 519.07745,399.7469 532.95381,395.11752 L532.47589,393.86067 Z" id="path3049"></path>
            <g id="text2988-3" transform="translate(301.131491, 412.047077) rotate(-14.155039) translate(-301.131491, -412.047077) translate(109.504921, 363.134415)" fill-rule="nonzero">
                <polyline id="path2997" points="19.1425887 0.439603866 40.0660079 0.439603866 48.5592311 39.143394 70.8539625 0.439603866 92.6178596 0.439603866 79.7453114 73.3081416 63.5993237 73.3081416 73.0214973 19.5230631 50.1074785 59.3005966 40.950722 59.3005966 31.8381922 19.5230631 16.2367481 97.8092094 0.0907699789 97.8092094 19.1425887 0.439603866"></polyline>
                <path d="M224.307252,75.4539454 C220.237533,77.0482983 216.330067,78.252202 212.584835,79.0656458 C208.839517,79.8790897 205.285931,80.2858116 201.924058,80.2858222 C193.047429,80.2858116 185.955005,77.6014427 180.646749,72.2326942 C175.338483,66.8639668 172.68435,59.754443 172.68435,50.9041333 C172.68435,45.079887 173.524819,39.5972614 175.205775,34.4562356 C176.886721,29.2827696 179.363909,24.5647804 182.637358,20.3022681 C186.500579,15.2915077 191.145302,11.4357699 196.571556,8.73506514 C202.027241,6.03449713 207.895819,4.68417105 214.177309,4.68409742 C217.598148,4.68417105 221.033774,5.13970046 224.484197,6.05068565 C227.934514,6.92928328 231.443864,8.27959884 235.012265,10.1016534 L232.26966,25.1829523 C229.438525,22.8077429 226.592699,21.0669676 223.732191,19.9606263 C220.871578,18.8544007 217.804581,18.3012563 214.531198,18.3011932 C207.718883,18.3012563 202.012501,21.1971173 197.412034,26.9887973 C192.811509,32.7805824 190.511265,40.020256 190.511284,48.7078285 C190.511265,54.3043627 191.926804,58.6969617 194.757901,61.8856571 C197.58895,65.074384 201.496416,66.6687369 206.480327,66.6687264 C209.458814,66.6687369 212.614275,66.0830577 215.946737,64.9116784 C219.308592,63.7077957 223.06861,61.8368706 227.226802,59.2988925 L224.307252,75.4539454" id="path2999"></path>
                <polyline id="path3001" points="255.043143 6.00187817 315.911369 6.00187817 313.389906 20.2046531 291.449045 20.2046531 281.097969 78.8704159 264.067229 78.8704159 274.418401 20.2046531 252.477521 20.2046531 255.043143 6.00187817"></polyline>
                <polyline id="path3003" points="336.871216 6.00187817 382.787707 6.00187817 380.266245 20.2046531 351.380494 20.2046531 348.99174 33.7729415 376.196611 33.7729415 373.630912 47.9757164 346.470277 47.9757164 336.56652 96.5656391 319.535876 96.5656391 336.871216 6.00187817"></polyline>
            </g>
            <polygon id="path3011" stroke="#FFFFFF" stroke-width="4.66010712" fill-rule="nonzero" stroke-linecap="round" stroke-linejoin="round" transform="translate(241.573484, 422.743727) rotate(-17.806870) translate(-241.573484, -422.743727) " points="256.593267 419.824174 247.320862 425.749265 249.93087 437.740665 241.606683 430.468326 231.365397 436.736279 235.493171 426.316639 226.553702 418.199043 237.428996 419.031691 242.145388 407.746789 244.738911 418.68103"></polygon>
        </g>
    </g>
</svg>